<?xml version="1.0" encoding="utf-8"?>
<svg xmlns="http://www.w3.org/2000/svg" id="_1" style="enable-background:new 0 0 197.2 31;" version="1.1" viewBox="0 0 197.2 31" x="0px" y="0px">
<style type="text/css">
	.st0{clip-path:url(#SVGID_2_);}
	.st1{fill:#FFFFFF;}
	.st2{fill:#C2A456;}
</style>
<g>
	<defs>
		<rect height="17.4" id="SVGID_1_" width="125.2" x="72" y="8"/>
	</defs>
	<clipPath id="SVGID_2_">
		<use href="#SVGID_1_" style="overflow:visible;"/>
	</clipPath>
	<g class="st0">
		<path class="st1" d="M78.3,24.2H75V14c-0.3,0.1-0.6,0.2-0.8,0.3c-0.4,0.1-1.2,0.2-2.2,0.2l0-2.1l0.7-0.1c0.7-0.1,1.3-0.3,1.9-0.6&#xD;&#xA;			c0.3-0.2,0.6-0.5,0.7-0.7c0.1-0.1,0.2-0.3,0.4-0.7h2.5V24.2z"/>
		<path class="st1" d="M87,16.9h-3.3v-3.5H87V16.9z M87,24.2h-3.3v-3.5H87V24.2z"/>
		<path class="st1" d="M96.1,24.2h-3.4V14c-0.3,0.1-0.6,0.2-0.8,0.3c-0.4,0.1-1.2,0.2-2.2,0.2l0-2.1l0.7-0.1&#xD;&#xA;			c0.7-0.1,1.3-0.3,1.9-0.6c0.3-0.2,0.6-0.5,0.7-0.7c0.1-0.1,0.2-0.3,0.4-0.7h2.5V24.2z"/>
		<path class="st1" d="M106.1,14.2c2.5-0.7,4.2-2.4,4.2-4.7V8.2h2.6v1.3c0,2.4,1.8,4.1,4.2,4.7v2.3c-2.6-0.5-4.7-1.8-5.6-3.7&#xD;&#xA;			c-0.8,1.8-3,3.1-5.6,3.7V14.2z M107.3,25.2v-4.8h12.4v-1.1h-12.4v-1.8h15v4.7H110v1.2h12.6v1.9H107.3z M119.7,16.7V8h2.7v8.7&#xD;&#xA;			H119.7z"/>
		<path class="st1" d="M123.3,21.5c2-1.3,4.5-3.7,4.5-8.6V8.4h2.6v4.5c0,4.8,2.5,7.3,4.5,8.6v3c-2.4-1.2-4.8-3.4-5.8-6.2&#xD;&#xA;			c-1,2.8-3.5,5-5.8,6.2V21.5z M137,25.2V8h2.7v17.2H137z"/>
		<path class="st1" d="M140.9,16c4.7-0.1,7.4-2.2,7.4-5.5H141V8.4h9.8v1.4c0,6-4.6,8.2-9.9,8.4V16z M141.8,25.2v-6h2.6V23h12.1v2.2&#xD;&#xA;			H141.8z M153.6,20.6V8h2.6v4.7h2.4V15h-2.4v5.6L153.6,20.6L153.6,20.6z"/>
		<path class="st2" d="M161.6,15.2c2.4-0.7,4.2-2.8,4.2-5.3V8.2h2.6v1.7c0,2.5,1.8,4.4,4.2,5.1v2.4c-2.4-0.6-4.6-2-5.5-3.8&#xD;&#xA;			c-0.8,1.9-3.1,3.3-5.5,4V15.2z M166.1,18.7h8c2.1,0,3.7,1.4,3.7,3.3c0,1.9-1.6,3.3-3.7,3.3h-8c-2,0-3.6-1.4-3.6-3.3&#xD;&#xA;			C162.5,20.1,164.1,18.7,166.1,18.7z M173.5,23.2c0.9,0,1.6-0.4,1.6-1.2c0-0.8-0.7-1.2-1.6-1.2h-6.9c-0.9,0-1.5,0.4-1.5,1.2&#xD;&#xA;			c0,0.8,0.7,1.2,1.5,1.2H173.5z M174.7,18.1V8h2.6v3.5h2.2v2.3h-2.2v4.4H174.7z"/>
		<path class="st2" d="M179.3,16.6V8.4h9.3v2.1h-6.7v3.9l8-0.6v2.1L179.3,16.6z M180.1,25.2v-7.1h14.3v7.1h-2.6v-0.5L180.1,25.2z&#xD;&#xA;			 M182.7,23l9.1-0.4v-2.5h-9.1V23z M191.8,17.4V8h2.6v3.3h2.4v2.2h-2.4v3.8H191.8z"/>
	</g>
</g>
<path class="st2" d="M0.2,30.6L0,30c4.6-4.3,8.7-8.6,13.2-13.2c3.6-3.8,6.2-7.6,6.2-11c0-3-1.5-5.3-4.5-5.3c-3,0-4.9,1.9-4.9,3.6&#xD;&#xA;	c0,1,0.2,0.7,0.2,1.7S9.5,7.6,8.3,7.6c-1.1,0-1.7-0.7-1.7-1.9c0-2.1,3.5-5.7,8.6-5.7c4.2,0,7.6,3,7.6,6.7c0,3.7-2.7,6.6-6.4,9.7&#xD;&#xA;	L3.4,27.6v0.1h11.4c1.7,0,3-0.3,3.5-1.9l0.5-1.7h0.7l-1.7,6.4H0.2z"/>
<path class="st2" d="M31.7,30l1.9-7H21.6l0.2-0.6c2.4-3.5,8.3-11.3,16.7-20.3c1.6-1.8,2-2.1,3.6-2.1c1,0,1.9,0.2,1.9,1&#xD;&#xA;	c0,0.6-0.4,0.9-1.5,1.7c-10.8,7.9-16.3,14.3-20,19.7h11.1l3-11.3h3.3l-3,11.3h4.6L41.4,23h-4.6L35,30h3.5l-0.2,0.6H28.1l0.2-0.6&#xD;&#xA;	H31.7z"/>
<path class="st1" d="M50.1,14.4H48l0.1-0.3h3.7L47.9,24h0c1-1.2,2.5-2.8,4.3-2.8c1.3,0,2.1,0.7,2.1,1.7c0,0.5-0.2,0.9-0.4,1.6&#xD;&#xA;	l-1.5,4C52.2,29,52,29.5,52,30c0,0.4,0.1,0.7,0.6,0.7c1.1,0,1.9-1.3,2.2-2l0.3,0.1c-0.3,0.6-1,2.2-2.9,2.2c-1,0-1.8-0.4-1.8-1.3&#xD;&#xA;	c0-0.4,0.1-0.8,0.3-1.2l2-5.2c0.1-0.4,0.2-0.6,0.2-0.9c0-0.4-0.2-0.8-0.9-0.8c-1.4,0-3.8,2-4.8,4.6l-1.7,4.6h-1.6L50.1,14.4z"/>
</svg>