<?xml version="1.0" encoding="utf-8"?>
<svg xmlns="http://www.w3.org/2000/svg" id="_1" style="enable-background:new 0 0 72 46;" version="1.1" viewBox="0 0 72 46" x="0px" y="0px">
<style type="text/css">
	.st0{clip-path:url(#SVGID_2_);}
	.st1{fill:#C2A456;}
	.st2{fill:#FFFFFF;}
</style>
<g>
	<defs>
		<rect height="12" id="SVGID_1_" width="64.9" x="5.2" y="33.5"/>
	</defs>
	<clipPath id="SVGID_2_">
		<use href="#SVGID_1_" style="overflow:visible;"/>
	</clipPath>
	<g class="st0">
		<path class="st1" d="M44.1,38.4c0.9-0.3,1.6-0.7,2.2-1.4c0.6-0.7,0.9-1.4,0.9-2.3v-1.2H49v1.2c0,0.8,0.3,1.6,0.8,2.2&#xD;&#xA;			c0.6,0.6,1.3,1.1,2.2,1.3v1.7c-0.9-0.2-1.7-0.6-2.5-1c-0.7-0.5-1.2-1-1.6-1.6c-0.3,0.6-0.8,1.2-1.5,1.7c-0.7,0.5-1.5,0.8-2.5,1.1&#xD;&#xA;			L44.1,38.4L44.1,38.4z M45.1,42c0.2-0.3,0.6-0.6,1-0.8c0.4-0.2,0.8-0.3,1.3-0.3h5.8c0.5,0,0.9,0.1,1.4,0.3c0.4,0.2,0.7,0.5,1,0.8&#xD;&#xA;			c0.2,0.3,0.4,0.7,0.4,1.2s-0.1,0.8-0.4,1.2c-0.2,0.3-0.6,0.6-1,0.8c-0.4,0.2-0.9,0.3-1.3,0.3h-5.8c-0.5,0-0.9-0.1-1.3-0.3&#xD;&#xA;			c-0.4-0.2-0.7-0.5-1-0.8c-0.2-0.3-0.4-0.7-0.4-1.2S44.8,42.3,45.1,42z M52.8,44c0.3,0,0.6-0.1,0.8-0.2c0.2-0.2,0.3-0.4,0.3-0.6&#xD;&#xA;			c0-0.3-0.1-0.5-0.3-0.6c-0.2-0.1-0.5-0.2-0.8-0.2h-5c-0.3,0-0.6,0.1-0.8,0.2c-0.2,0.1-0.3,0.4-0.3,0.6c0,0.3,0.1,0.5,0.3,0.6&#xD;&#xA;			c0.2,0.2,0.5,0.2,0.8,0.2H52.8z M55.5,40.5h-1.9v-7h1.9v2.4h1.6v1.6h-1.6V40.5z"/>
		<path class="st1" d="M65,38.9l-7.7,0.5v-5.7h6.7v1.4h-4.8v2.7l5.8-0.4V38.9z M66.4,45l-8.5,0.4v-4.9h10.4v4.9h-1.9V45z M59.8,41.9&#xD;&#xA;			v2l6.6-0.3v-1.7H59.8z M68.3,40h-1.9v-6.5h1.9v2.3h1.7v1.6h-1.7V40z"/>
	</g>
</g>
<path class="st1" d="M11.2,28.6L11,28.1c4.3-4.1,8.2-8,12.4-12.3c3.4-3.5,5.8-7.1,5.8-10.3c0-2.8-1.4-4.9-4.2-4.9s-4.6,1.8-4.6,3.4&#xD;&#xA;	c0,0.9,0.2,0.7,0.2,1.5c0,0.9-0.7,1.6-1.7,1.6c-1,0-1.5-0.7-1.5-1.7c0-2,3.3-5.3,8-5.3c4,0,7.2,2.8,7.2,6.3c0,3.5-2.6,6.2-6,9.1&#xD;&#xA;	L14.2,25.9v0.1h10.7c1.5,0,2.8-0.3,3.3-1.8l0.5-1.5h0.6l-1.6,6H11.2z"/>
<path class="st1" d="M40.7,28l1.8-6.5H31.3l0.2-0.6c2.3-3.3,7.7-10.6,15.7-18.9c1.5-1.7,1.8-2,3.4-2c0.9,0,1.8,0.2,1.8,0.9&#xD;&#xA;	c0,0.6-0.4,0.9-1.4,1.6C40.8,9.8,35.7,15.9,32.2,20.9h10.4l2.9-10.6h3.1l-2.9,10.6h4.3l-0.2,0.6h-4.3L43.8,28h3.3l-0.2,0.6h-9.6&#xD;&#xA;	l0.2-0.6H40.7z"/>
<path class="st2" d="M58.1,13.5h-2l0.1-0.3h3.5l-3.7,9.3h0c0.9-1.1,2.4-2.6,4-2.6c1.2,0,2,0.7,2,1.6c0,0.5-0.2,0.9-0.4,1.5l-1.4,3.8&#xD;&#xA;	c-0.2,0.5-0.4,0.9-0.4,1.4c0,0.3,0.1,0.7,0.6,0.7c1,0,1.8-1.2,2.1-1.8l0.2,0.1c-0.3,0.5-1,2-2.7,2c-0.9,0-1.7-0.4-1.7-1.2&#xD;&#xA;	c0-0.3,0.1-0.7,0.3-1.2l1.8-4.9c0.1-0.3,0.2-0.6,0.2-0.8c0-0.3-0.2-0.8-0.9-0.8c-1.3,0-3.6,1.9-4.5,4.3l-1.6,4.3h-1.5L58.1,13.5z"/>
<g>
	<path class="st2" d="M5.2,37.8c1.7-0.5,2.9-1.6,2.9-3.3v-0.9H10v0.9c0,1.6,1.2,2.8,2.9,3.3v1.6C11.1,39,9.6,38.1,9,36.9&#xD;&#xA;		c-0.6,1.3-2.1,2.2-3.9,2.5V37.8z M6,45.5v-3.4h8.6v-0.8H6v-1.3h10.4v3.3H7.9v0.8h8.8v1.3H6z M14.6,39.6v-6h1.8v6H14.6z"/>
	<path class="st2" d="M17.1,42.9c1.4-0.9,3.1-2.6,3.1-6v-3.1h1.8v3.1c0,3.4,1.7,5.1,3.1,6v2.1c-1.6-0.8-3.4-2.4-4-4.3&#xD;&#xA;		c-0.7,1.9-2.4,3.5-4.1,4.3V42.9z M26.6,45.5V33.5h1.8v11.9H26.6z"/>
	<path class="st2" d="M29.3,39.1c3.2-0.1,5.1-1.5,5.1-3.8h-5.1v-1.5h6.8v1c0,4.1-3.2,5.7-6.9,5.8V39.1z M30,45.5v-4.2h1.8v2.6h8.4&#xD;&#xA;		v1.5H30z M38.1,42.3v-8.8h1.8v3.3h1.7v1.6h-1.7v3.9L38.1,42.3L38.1,42.3z"/>
</g>
</svg>