<?xml version="1.0" encoding="UTF-8"?><svg id="uuid-5b533bb4-d9bf-490c-844e-fb2ea8fc036d" xmlns="http://www.w3.org/2000/svg" viewBox="0 0 348.68 478.48"><defs><style>.uuid-547f55e8-1644-4f56-8dd6-9a94ce59e4a9{fill:#fff;stroke-width:0px;}</style></defs><g id="uuid-709e0ddb-a81f-40ef-b588-6076c93325b1"><path class="uuid-547f55e8-1644-4f56-8dd6-9a94ce59e4a9" d="m10.24,478.48c-.68,0-1.4-.29-2.19-.66-2.27-1.02-3.66-2.19-4.35-2.78-1.68-.87-2.01-2.38-2.1-3.46-.04-.21-.35-1.96-.83-3.02-.03-.07-.05-.15-.05-.23,0-.22-.06-.34-.17-.57-.26-.53-.61-1.26-.55-3.5.04-1.33.7-2.56,1.77-3.29.11-.08.23-.15.35-.23.47-.3.95-.61,1.49-1.24.55-.64,1.23-1.09,1.98-1.31,1.42-.43,6.28-2,9.2-4.35.61-.49,1.38-.78,2.22-.84,3.36-.26,10.72-.51,12.77-.35.49-.36,1.14-.35,1.83-.34.72.01,1.55.02,2.28-.4.54-.31,1.15-.49,1.76-.52,2.12-.12,5.59-.14,6.42.85.49.2.94.22,1.46.25.96.05,2.04.11,3.45,1.3.02.02.04.04.06.06.33.37.61.67.86.93.74.77,1.24,1.29,1.46,2.4.11.57.44,1.12.93,1.56,1.09.98,2.28,2.16,2.47,3.61,0,.06,0,.12,0,.18-.04.2.03.29.22.51.27.32.83.97-.15,1.96-.05.05-.11.09-.17.12-1.82.8-1.84,1.27-1.66,1.86,0,.02,0,.04.01.06l.03.15c.43,2.24.64,3.37-1.51,5.4-.09.09-.22.14-.35.15-.82.04-1.42.19-2.06.36-.57.14-1.17.29-1.93.37-.85.09-1.62.51-2.17,1.18-.51.63-1.22.83-2.52.72-.91.1-1.21.24-1.5.37-.36.16-.72.33-1.76.39-.52,0-1.26.51-1.62.76-1.39.95-3.2.99-4.62.09l-.31-.19c-.8-.5-1.82-.56-2.8-.16-.75.31-1.79.54-2.71.74-.6.13-1.42.32-1.59.42-.04.02-.09.05-.13.06l-.24.08c-.95.33-2.25.78-3.73-.17-1.56-.11-2.54-.63-3.27-1.01-.26-.14-.48-.25-.68-.33-.02,0-.05-.02-.07-.03-.87-.47-1.34-.27-3.01.56l-.06.03c-.67,1.12-1.38,1.51-2.16,1.51Zm-8.42-10.27c.54,1.26.86,3.13.87,3.21,0,.02,0,.03,0,.05.11,1.35.58,2.13,1.56,2.62.04.02.08.05.11.07.63.54,1.95,1.67,4.14,2.65,1.85.87,2.27.79,3.02-.53.05-.1.14-.17.23-.22l.21-.1c1.62-.81,2.6-1.3,3.99-.56.25.1.51.23.77.37.7.37,1.57.82,2.97.89.1,0,.2.04.29.1,1.08.75,1.95.45,2.88.13l.19-.07c.32-.18.89-.31,1.88-.54.87-.2,1.86-.42,2.53-.69,1.31-.53,2.69-.44,3.8.25l.31.2c1.04.66,2.38.63,3.41-.07.67-.46,1.45-.95,2.21-.95.8-.05,1.04-.16,1.33-.29.36-.16.77-.35,1.89-.47.04,0,.07,0,.11,0,1.26.12,1.48-.14,1.62-.32.74-.91,1.77-1.47,2.91-1.58.69-.07,1.22-.2,1.78-.34.61-.15,1.24-.31,2.06-.37,1.56-1.52,1.43-2.18,1.04-4.25l-.02-.12c-.48-1.64.75-2.47,2.19-3.11.15-.17.17-.24.17-.24h0s-.09-.09-.14-.15c-.22-.25-.57-.67-.48-1.34-.18-1.05-1.18-2.03-2.1-2.86-.66-.6-1.12-1.37-1.27-2.17-.16-.8-.48-1.13-1.17-1.85-.25-.26-.54-.56-.86-.93-1.11-.92-1.88-.96-2.77-1.01-.62-.03-1.27-.07-2.01-.42-.12-.06-.22-.16-.27-.28-.42-.31-2.81-.55-5.47-.4-.44.02-.88.16-1.27.38-.99.57-2.02.56-2.84.55-.54,0-1.05-.01-1.21.17-.12.14-.3.21-.49.18-1.4-.19-9.05.04-12.8.33-.62.05-1.18.26-1.61.61-3.08,2.47-8.1,4.1-9.57,4.54-.54.16-1.05.5-1.46.98-.65.75-1.22,1.12-1.73,1.45-.11.07-.22.14-.33.22-.78.53-1.26,1.43-1.29,2.41-.06,1.97.23,2.55.44,2.98.13.26.25.52.28.93Zm39.34-15.41s0,0,0,0c0,0,0,0,0,0Z"/><path class="uuid-547f55e8-1644-4f56-8dd6-9a94ce59e4a9" d="m80.74,349.68c-1.57,0-3.27-.18-3.74-.48-.37-.23-.79-.84-1.42-1.81-.24-.36-.48-.73-.61-.88-.35-.41-.52-.71-.62-.9-.03-.06-.06-.11-.09-.15-.07-.04-.4-.12-.98-.23-.2-.04-.42-.07-.66-.1-.8-.11-1.7-.22-2.34-.6-.86-.5-1.08-1.11-1.26-1.6-.1-.29-.18-.5-.38-.7-.49-.49-1.19-.83-1.94-1.18-1.26-.59-2.68-1.27-3.31-2.89l-.16-.42.32-.32c.32-.32.48-.74.68-1.21.17-.42.37-.9.69-1.35.42-.57.96-.98,1.43-1.34.38-.29.74-.56.99-.87.21-.27.47-.75.75-1.25.73-1.34,1.63-2.99,2.99-3.23l.26-.94.67.18c.18.05.59-.02.95-.09.49-.09,1.05-.18,1.6-.12,1.23.14,1.65.69,1.99,1.13.17.22.32.42.59.6,1.34.91,2.33.56,3.7.07.37-.13.74-.26,1.14-.38.54-1.79,2.55-1.59,3.66-1.48.21.02.49.04.81.05,1.43.08,2.57.17,3.15.51,1.31.78,1.79,2.44,2.26,4.06.33,1.13.67,2.3,1.25,2.87.27.27.57.33.95.41.56.12,1.32.29,1.8,1.22.15.29.1.61.01,1.08-.03.17-.09.5-.08.6,0,0,.16.1.26.18.3.23.72.55.83,1.12.41,2.1-1.29,3.33-2.65,4.32-.59.43-1.15.83-1.41,1.22-.13.19-.17.3-.22.45-.1.29-.21.57-.58.93-.12.11-1.5.98-1.81,1.04-.97.17-1.58-.13-2.07-.37-.29-.14-.51-.25-.79-.26-.28.1-.66.23-1.2.4-.48.15-.95.3-1.14.36-.23.18-.31.39-.43.69-.15.38-.36.91-.97,1.28-.44.27-1.61.38-2.85.38Zm-15.89-11.66c.49.85,1.4,1.28,2.43,1.77.83.39,1.68.79,2.34,1.46.42.42.57.86.7,1.2.15.4.23.62.65.87.4.23,1.19.34,1.82.42.26.03.51.07.73.11,1.3.23,1.65.36,2.05,1.08.09.17.21.37.47.67.18.21.43.59.71,1.02.29.44.82,1.25,1.01,1.4.56.26,4.47.4,5.11.08.19-.12.25-.26.38-.59.16-.4.37-.94,1.01-1.38q.11-.08,1.44-.5c.26-.08.52-.16.74-.23l-.04-.22h.83c.64-.02,1.12.21,1.5.4.38.19.66.32,1.13.26.26-.14,1.08-.62,1.21-.72.1-.1.12-.16.17-.33.06-.19.15-.44.39-.8.4-.58,1.05-1.05,1.74-1.55,1.41-1.02,2.32-1.78,2.09-2.92-.02-.06-.2-.19-.3-.27-.28-.21-.62-.47-.76-.93-.09-.32-.04-.68.05-1.2.02-.12.04-.23.05-.32-.15-.23-.34-.28-.79-.38-.45-.1-1.07-.23-1.63-.78-.84-.83-1.23-2.18-1.61-3.48-.39-1.35-.8-2.75-1.63-3.24-.33-.19-1.86-.28-2.51-.32-.34-.02-.65-.04-.86-.06-1.68-.17-2.14-.02-2.25.75l-.07.48-.47.11c-.49.12-.96.28-1.42.45-1.49.53-3.02,1.08-4.96-.23-.47-.32-.72-.65-.92-.91-.28-.36-.39-.51-1.03-.58-.35-.04-.79.04-1.2.11-.29.05-.58.1-.85.12l-.2.72h-.74s.04-.7.04-.7l-.05.7c-.72.03-1.54,1.53-2.08,2.52-.3.56-.59,1.09-.88,1.46-.36.46-.81.79-1.24,1.12-.44.33-.85.64-1.14,1.04-.22.31-.37.67-.53,1.05-.17.41-.35.86-.65,1.28Z"/><path class="uuid-547f55e8-1644-4f56-8dd6-9a94ce59e4a9" d="m126.84,234.75s-.09,0-.14,0c-1.75-.07-3.83-.86-3.86-4.25,0-1.33-.48-1.8-1.18-2.5-.3-.3-.62-.62-.93-1.03-.1.4.04.96.29,1.79.29.98.6,1.99.04,2.84-1.22,1.85-5.71.71-6.48.43l-.4-.15-.05-.42c-.08-.62-.05-1.21-.02-1.78.02-.49.05-.95,0-1.41-.09-.84-.25-.97-.6-1.27-.24-.21-.55-.47-.87-.95-.72-1.07-.84-2.41-.95-3.71-.07-.82-.14-1.68-.37-2.42l-.19-.61.59-.24c.22-.09.44-.17.66-.25,1.15-.41,1.41-.57,1.31-1.27-.05-.39-.26-.56-.68-.87-.38-.28-.85-.63-1.11-1.25-.23-.53-.5-1.73-.75-2.94l-.05-.22c-.29-1.32-.31-2.81,1.7-3.81.32-.16.74-.2,1.18-.24.28-.03.59-.05.74-.11.3-.11.52-.3.78-.52.25-.21.53-.45.89-.63,1.26-.61,1.85-.35,2.44.02.25.16.47.3.91.34,1.1.09,2.93-1.54,4.67-4.15l1.16.78c-1.24,1.86-3.66,4.96-5.95,4.76-.79-.06-1.23-.34-1.55-.55-.33-.21-.42-.27-1.08.05-.21.1-.39.26-.6.44-.32.27-.67.57-1.2.77-.33.12-.72.16-1.1.19-.22.02-.58.05-.68.1-1.01.5-1.23,1.01-.96,2.26l.05.22c.13.6.47,2.2.67,2.68.11.26.32.43.66.68.47.34,1.1.82,1.24,1.81.26,1.89-1.18,2.4-2.23,2.77,0,0-.02,0-.03,0,.15.69.2,1.39.26,2.08.1,1.17.19,2.28.71,3.04.22.32.42.49.62.67.54.47.94.9,1.08,2.19.06.57.03,1.11,0,1.63-.02.38-.04.74-.02,1.1,1.51.43,4.01.59,4.41-.02.2-.3-.02-1.02-.21-1.66-.37-1.23-.88-2.92.76-3.97l.65-.41.35.68c.35.68.77,1.1,1.21,1.54.78.78,1.58,1.58,1.59,3.48.01,1.91.79,2.79,2.51,2.86.47.01.65-.1,1.02-.34.28-.18.62-.4,1.13-.57.62-.21,1.21-.11,1.72-.03.35.06.68.11.88.04.3-.1.51-.28.79-.5.39-.32.87-.71,1.67-.89.52-.12,1.01-.07,1.48-.02h.11s-.14,1.4-.14,1.4h-.11c-.39-.05-.73-.09-1.02-.02-.48.11-.77.35-1.11.62-.32.26-.68.55-1.21.74-.54.19-1.08.1-1.56.02-.39-.06-.77-.12-1.06-.02-.34.11-.57.26-.81.42-.41.27-.88.56-1.7.56Z"/><path class="uuid-547f55e8-1644-4f56-8dd6-9a94ce59e4a9" d="m199.04,291.28c-.07-.88.1-1.95.27-3.09.18-1.18.36-2.4.23-3.17-.05-.3-.11-.46-.14-.54-.03,0-.05,0-.08,0-.34.01-.92.03-1.52-.52-.45-.41-.49-.94-.51-1.3-.01-.17-.02-.33-.07-.4-.02-.02-.15-.06-.23-.09-.29-.1-.72-.25-.98-.73-.34-.6-.75-1.5-.48-2.34.11-.33.38-.8,1.04-1.11,1.52-.71,2.24.4,2.63,1,.15.23.32.49.46.56.54.3.98.37,1.37.23.61-.23,1.07-.97,1.41-1.72-1.87-.6-2.24-2.63-2.51-4.16-.1-.53-.19-1.03-.32-1.46l-.24-.78.81-.12c.33-.05.65-.15,1-.27.36-.12.76-.25,1.19-.32.06-.28.02-.47-.01-.66-.17-.9.15-1.37,1.37-1.98.39-.19.8-.27,1.16-.33.22-.04.42-.08.58-.13.1-.09.24-.25.38-.41.25-.28.4-.44.53-.53.24-.18.55-.3.84-.41.21-.08.65-.25.7-.36,0,0,.03-.15-.23-.57-.36-.56-1.63-.57-2.65-.28l-.5.14-.28-.44c-.23-.36-1.19-.66-1.97-.9-1.31-.4-2.79-.86-3.2-2.08-.27-.79-.03-1.7.73-2.78,1.74-2.47,5.83-3.73,8.95-4.35l.73-.15.1.74c.09.7-.04,1.43-.18,2.13-.12.62-.23,1.25-.14,1.66.08.35.45.69.92.85.44.15.88.11,1.15-.1.38-.31.62-.94.87-1.6.27-.71.57-1.52,1.15-2.16,1.06-1.18,2.36-2.2,3.63-3.19l.44-.35c2.72-2.14,5.21-2.9,8.89-2.69,4.13.23,4.12,2.93,4.11,5.31,0,.47,0,.96.02,1.46.02.48.22,1.71.35,2.08.14.4.27.54.48.78.16.19.37.42.6.79.87,1.41.68,2.41.38,3.93l-.2,1.06-.36.14c-.67.27-1.32.37-1.9.45-1.05.15-1.63.26-2.1.98-.66,1.01-.53,2.31-.38,3.69.04.41.08.81.11,1.19.09,1.67-.46,2.51-.95,3.26-.3.47-.59.91-.77,1.58-.07.25-.03.35.05.58.08.23.19.55.17,1.01-.07,1.25-.15,1.55-.91,2.1-.13.09-.29.21-.49.38-1.98,1.66-3.19,2.06-5.12,0-.79-.84-1.07-1.36-1.44-2.11-.25-.52-.28-.87-.29-1.1,0-.04,0-.08-.01-.12,0,0-.06-.1-.42-.37-.61-.45-1.23-.62-1.77-.47-.55.14-1.03.6-1.34,1.29-.12.26-.15.62-.19.99-.05.49-.1,1.05-.37,1.56-.26.48-.6.85-.93,1.21-.36.39-.7.76-.91,1.25l-.25.61c-.77,1.84-1,2.28-3.09,3.58-.11.07-.24.14-.38.23-.39.23-1.31.77-1.46,1.05-.02.06-.08.42,0,1.76l-.69.13-.7.04c-.08-1.52-.04-2.19.16-2.57.31-.59,1.08-1.08,2-1.61.13-.08.25-.15.35-.21,1.78-1.11,1.85-1.28,2.54-2.92l.26-.62c.3-.71.76-1.21,1.17-1.65.28-.31.55-.6.73-.92.14-.25.17-.63.21-1.02.04-.45.09-.96.31-1.43.49-1.08,1.29-1.81,2.26-2.07.96-.25,2.01,0,2.96.7.8.6.96.97,1,1.53.01.16.02.3.15.58.36.73.56,1.09,1.2,1.77,1.21,1.29,1.54,1.28,3.2-.11.23-.19.41-.33.56-.43.1-.07.22-.16.24-.19.05-.1.08-.61.09-.86.01-.18-.03-.29-.09-.47-.11-.31-.25-.73-.08-1.39.23-.9.61-1.48.95-2,.46-.7.79-1.21.72-2.42-.02-.36-.06-.74-.1-1.12-.16-1.49-.34-3.17.6-4.6.84-1.28,2.02-1.45,3.07-1.6.4-.06.82-.12,1.22-.24l.06-.29c.27-1.4.38-1.98-.2-2.93-.17-.27-.31-.43-.46-.6-.25-.29-.52-.59-.75-1.24-.19-.54-.4-1.93-.43-2.48-.02-.53-.02-1.04-.02-1.53.01-2.49.02-3.75-2.79-3.9-3.33-.18-5.49.46-7.95,2.39l-.45.35c-1.21.95-2.47,1.93-3.45,3.02-.4.44-.63,1.06-.88,1.71-.3.81-.62,1.64-1.29,2.19-.64.52-1.57.65-2.48.34-.94-.32-1.64-1.03-1.83-1.85-.17-.7-.02-1.49.12-2.25.06-.31.12-.62.15-.92-3.62.82-6.17,2.08-7.24,3.6-.47.66-.66,1.21-.55,1.53.19.54,1.35.9,2.29,1.19.93.29,1.83.56,2.4,1.08,1.37-.28,3.03-.17,3.77.98.43.67.55,1.25.38,1.76-.24.74-.99,1.02-1.53,1.23-.19.07-.41.16-.5.22-.06.06-.19.2-.33.35-.42.46-.58.63-.79.72-.31.14-.64.2-.96.25-.29.05-.57.1-.77.2-.4.2-.57.32-.64.38,0,.03.01.06.02.09.07.35.18.93-.19,1.84l-.17.43h-.46c-.43.02-.85.16-1.3.3-.16.05-.31.1-.48.15.06.3.12.6.17.89.35,1.92.63,3.09,2.15,3.18l.95.05-.33.89c-.48,1.28-1.2,2.82-2.55,3.32-.78.29-1.63.18-2.54-.32-.44-.25-.71-.66-.95-1.02-.44-.67-.49-.67-.87-.5-.25.12-.29.23-.3.27-.04.13-.05.47.37,1.23.02.02.14.06.22.09.26.09.61.21.87.56.3.39.33.82.35,1.14.01.15.02.33.07.37.18.16.28.16.52.15.98-.03,1.43.44,1.65,1.69.18,1-.02,2.33-.22,3.63-.15,1.01-.31,2.05-.25,2.77l-1.4.11Z"/><path class="uuid-547f55e8-1644-4f56-8dd6-9a94ce59e4a9" d="m230.25,339.65c-.47-2.34,1.24-3.67,2.61-4.75.49-.38.96-.75,1.29-1.12.53-.58,1-1.38,1.49-2.23.78-1.33,1.59-2.7,2.78-3.53,1.19-.82,3.05-.64,4.68-.47.78.08,1.52.15,2.03.1,2.69-.27,3.38-.56,4-2.84l.13-.49.5-.03c.48-.03.99.03,1.48.08.65.07,1.32.15,1.76,0,.21-.07.33-.19.53-.4.16-.17.35-.37.62-.53.67-.41.8-.47,1.33-.69l.28-.12q1.09-.46,1.49-1c.13-.17.28-.38.49-.64.72-.91,1.58-1.32,2.41-1.71.3-.14.61-.29.93-.47.8-.46,1.19-1.02,1.61-1.62.61-.88,1.31-1.87,3.22-2.17,1.52-.23,2.94-.09,4.31.04.83.08,1.62.16,2.44.16h.64s.06.64.06.64c.04.45.19.91.36,1.39.28.83.62,1.81.26,2.85.47.12.99.29,1.53.46.92.3,2.62.85,3.01.66l.87,1.09c-.84.69-2.45.18-4.31-.42-.83-.27-1.7-.55-2.23-.6l-1.24-.13.75-.99c.58-.76.4-1.4.03-2.47-.12-.35-.24-.71-.33-1.09-.67-.03-1.33-.09-1.98-.16-1.35-.13-2.61-.26-3.96-.05-1.32.2-1.73.78-2.28,1.58-.46.67-.99,1.42-2.06,2.03-.34.2-.69.36-1.02.52-.75.36-1.4.67-1.91,1.32-.2.25-.35.45-.47.61-.62.83-.73.89-1.99,1.42l-.37.15c-.46.19-.53.22-1.13.59-.11.07-.21.17-.33.3-.24.25-.54.57-1.08.76-.74.26-1.58.17-2.38.08-.26-.03-.52-.06-.76-.07-.86,2.65-2.26,3.07-5.06,3.34-.66.06-1.46-.01-2.31-.1-1.4-.14-2.98-.29-3.75.23-.94.65-1.67,1.88-2.37,3.08-.51.87-1.04,1.77-1.66,2.46-.42.46-.95.88-1.47,1.29-1.49,1.17-2.38,1.98-2.1,3.37l-1.37.28Z"/><path class="uuid-547f55e8-1644-4f56-8dd6-9a94ce59e4a9" d="m267.34,315.9c-.58-.42-.78-1.26-.99-2.07-.07-.27-.13-.54-.21-.77-.45-1.35-.52-1.55-1.61-2.3-1.2-.83-1.99-1.96-2.76-3.04-.76-1.07-1.47-2.08-2.53-2.78-1.37-.9-2.74-.87-4.31-.83-.39,0-.78.02-1.18.01-1.62-.02-2.38-.45-3.24-1.84-.22-.36-.24-.72-.25-.98,0-.09-.01-.23-.03-.26-.06-.11-.22-.22-.39-.34-.29-.22-.66-.49-.87-.95-1.01-2.23.92-3.24,2.07-3.84,1.39-.72,1.53-.96,1.33-1.44l-.32-.77.81-.18c.51-.11.63-.36.67-.44.16-.33.09-.9-.18-1.47l-.14-.3.14-.3.04.02-.05-.07s.01-.03.04-.06c.43-.5.84-.32,1-.22l.1.39.14-.07c.47.98.54,1.96.18,2.69-.15.31-.43.69-.95.96.11,1.32-1.23,2.02-2.16,2.5-1.5.78-1.85,1.12-1.44,2.02.06.14.23.26.43.41.25.19.54.4.75.75.2.33.22.67.23.92,0,.13.01.26.04.31.61.99.92,1.17,2.07,1.18.38,0,.76,0,1.13-.01,1.65-.03,3.37-.08,5.11,1.06,1.28.84,2.11,2.01,2.91,3.14.73,1.03,1.42,2.01,2.42,2.7,1.47,1.02,1.65,1.54,2.11,2.94.11.33.19.64.27.95.1.4.29,1.15.46,1.28l-.83,1.13Z"/><path class="uuid-547f55e8-1644-4f56-8dd6-9a94ce59e4a9" d="m47.56,219.46c-1.9,0-2.75-1.31-2.99-2.2-.84-.78-.73-1.72-.64-2.49.09-.78.12-1.28-.36-1.77-.92-.92-.64-1.75-.44-2.29.18-.52.28-.79-.34-1.33-1.26-1.12-.77-2.15-.5-2.7.06-.13.16-.33.16-.4h0s-.03-.03-.11-.09c-.91-.61-.77-1.71-.68-2.51.04-.34.11-.92-.02-.97-.16-.06-.28-.19-.34-.35-.07-.21-.62-2.03.27-2.91.49-.48,1.25-.55,2.25-.21,1.27.32,1.36,1.31,1.42,1.96.04.46.08.75.29.98.77.61,1.03,1.37,1.26,2.05.2.59.36,1.05.8,1.35.05.03.09.07.13.12,1,1.28,1.02,2.09,1.03,2.62,0,.28.02.34.07.4.97,1.26,1.34,2.82,1.42,3.21,1.01,2,.66,4.03.54,4.55.11.69,0,1.29-.34,1.77-.6.87-1.74,1.07-2.22,1.16l-.12.02c-.19.02-.37.03-.55.03Zm-5.27-17.65c.65.43.54,1.33.46,2-.09.75-.13,1.25.19,1.46.94.63.54,1.45.33,1.89-.26.54-.4.83.23,1.39,1.17,1.04.86,1.93.65,2.52-.17.49-.25.71.18,1.14.89.89.77,1.88.68,2.68-.09.79-.12,1.23.39,1.63.1.08.17.2.2.33.03.17.39,1.7,2.33,1.47l.1-.02c.38-.07,1.16-.2,1.51-.7.18-.26.23-.61.14-1.06-.02-.08-.01-.17,0-.25,0-.02.53-2.05-.46-3.95-.03-.05-.04-.1-.05-.16,0-.02-.3-1.61-1.21-2.8-.3-.36-.31-.74-.32-1.07,0-.42-.02-.94-.75-1.9-.7-.5-.94-1.22-1.16-1.85-.21-.61-.39-1.14-.92-1.55-.02-.01-.04-.03-.05-.05-.52-.52-.58-1.17-.63-1.68-.06-.67-.1-.87-.64-1.01-.6-.2-1.01-.22-1.17-.06-.25.24-.2,1.01-.05,1.58Z"/><path class="uuid-547f55e8-1644-4f56-8dd6-9a94ce59e4a9" d="m56.59,121.39c-1.14,0-2.2-1.68-2.5-2.2-.03-.04-.04-.09-.06-.14-.05-.19-1.18-4.73,1.35-5.97.36-.29.64-.56.86-.77.43-.42.77-.74,1.27-.73.61.02,1.12.51,2.31,1.8,1.38,1.66,1.28,3.71-.26,5.65-1.3,2.11-1.7,2.39-2.58,2.35-.1,0-.21,0-.34,0-.02,0-.04,0-.06,0Zm-1.51-2.68c.45.75,1.15,1.55,1.49,1.58.19-.02.34-.01.47,0,.29.01.46.02,1.61-1.85.01-.02.02-.04.04-.06,1.24-1.55,1.34-3.02.31-4.26-.44-.47-1.28-1.39-1.52-1.43-.06.02-.29.24-.47.42-.25.24-.56.55-.99.89-.04.03-.07.05-.11.07-1.44.66-1.1,3.51-.83,4.65Z"/><path class="uuid-547f55e8-1644-4f56-8dd6-9a94ce59e4a9" d="m34.74,82.75c-.21,0-.4-.04-.58-.12-.77-.33-.98-1.24-1.08-1.89-.01-.07,0-.14,0-.21.36-1.47,1.75-4.07,4.46-3.45,1.14.08,1.99.66,2.18,1.49.12.55.04,1.62-1.86,2.66-1.29.92-2.3,1.51-3.12,1.51Zm-.55-2.05c.09.52.23.85.4.92.35.15,1.25-.29,2.66-1.3.02-.01.04-.03.06-.04,1.1-.59,1.41-1.16,1.34-1.47-.06-.29-.5-.6-1.21-.64-.03,0-.07,0-.1-.01-2.15-.52-3,1.98-3.15,2.53Z"/><path class="uuid-547f55e8-1644-4f56-8dd6-9a94ce59e4a9" d="m42.35,93.95c-.18,0-.39-.04-.62-.12-.03-.01-.06-.03-.09-.04-2.2-1.32-2.54-2.34-3.55-5.36-.25-.76-.55-1.65-.94-2.72-.02-.06-.03-.12-.03-.19,0-.74.1-3.21,1.34-3.61.95-.31,1.82.69,2.39,1.47.04.06.07.13.09.2.59,2.55,1.06,3.58,2.2,4.81.06.07.11.15.13.25.97,4.06.15,4.79-.12,5.03-.17.15-.43.3-.8.3Zm-.19-1.14c.11.04.22.06.26.02.2-.18.42-1.2-.19-3.81-1.19-1.32-1.73-2.5-2.33-5.09-.75-1.01-1.09-.98-1.09-.98-.26.08-.57,1.23-.58,2.47.37,1.04.66,1.91.91,2.65.98,2.93,1.22,3.64,3.02,4.73Z"/><path class="uuid-547f55e8-1644-4f56-8dd6-9a94ce59e4a9" d="m49.2,93.89c-2.17,0-3.05-.36-4.81-3.22-.07-.11-.09-.24-.08-.37.2-1.43.18-1.48-.33-2.89-.19-.52-.44-1.22-.77-2.22-.01-.04-.02-.09-.03-.14-.07-1.14-.31-6.82,1.85-7.88.74-.72,2.12-1.06,3.49-.83,1.39.23,2.48,1.01,2.99,2.14.44.71.88,1.31,1.3,1.89,1.24,1.71,2.32,3.19,2.21,5.93.05.08.09.16.14.24.55.94,1.11,1.9-.08,3.56-.42,2.08-1.2,3.3-3.97,3.76-.03,0-.06,0-.09,0-.42,0-.8,0-1.15.01-.24,0-.47,0-.68,0Zm-3.77-3.63c1.61,2.58,2.07,2.57,4.43,2.52.34,0,.71-.01,1.12-.02,2.17-.37,2.69-1.11,3.05-2.99.02-.08.05-.16.1-.23.85-1.13.59-1.57.08-2.44-.08-.13-.15-.26-.23-.4-.05-.09-.07-.19-.07-.3.14-2.45-.75-3.68-1.99-5.38-.42-.58-.9-1.23-1.37-1.99-.01-.02-.03-.05-.04-.07-.48-1.09-1.57-1.43-2.18-1.53-1.01-.17-2.12.08-2.58.57-.06.06-.12.11-.2.14-1.13.45-1.43,4.21-1.28,6.77.31.95.55,1.62.73,2.12.54,1.49.61,1.76.41,3.22Z"/><path class="uuid-547f55e8-1644-4f56-8dd6-9a94ce59e4a9" d="m228.1,296.3c-1.99,0-3.34-.15-3.95-.57-.05-.03-.09-.08-.13-.12-.7-.94-2.27-1.64-5.43-2.92-2.33-1.16-4.68-1.99-5.43-2.05-5.93-.23-7.25.11-8.04.31-.4.1-.74.19-1.39.16-1.91,0-2.44.24-3.01.49-.61.27-1.25.56-3.17.59-.87-.03-1.65.11-2.64.29-1.28.23-2.87.51-5.38.59-1.62.05-2.62-.25-3.17-.95-.82-1.07-.4-2.74.4-5.36.01-.04.03-.08.05-.12,1.05-1.75.88-3.1-.57-4.36-1.29-1.35-4.24-2.54-8.92-4.14-3.14-1.02-7.93-4.42-8.13-4.56-2.73-1.66-6.88-6.12-7.34-6.63-.15-.16-.19-.41-.1-.61l.18-.38c1.59-3.02-1.9-10.2-3.97-13.57-.15-.24-.09-.56.14-.73.23-.17.55-.14.74.07.15.17.29.34.43.51,2.33.05,5.01-.62,6.93-1.69.19-.27.37-.54.56-.81,1.89-2.75,3.84-5.6,7.4-5.7.24,0,.44.02.64.03,1.06.05,1.83.08,2.13-.25.33-.36.38-1.38.14-3.1l-.08-.4c-.84-4.15-1.4-6.89-5.51-7.43-.05,0-.09-.02-.14-.04l-.12-.05c-4.09-1.66-5.46-2.7-4.67-11.84,0-.06.02-.13.05-.19.44-.94.54-2.81.65-4.79.05-.96.11-1.96.21-2.93,0-.04.01-.07.02-.11.99-3.19,1.07-5.68-1.58-8.24-.04-.04-.07-.08-.1-.12-1.93-3.4-1-4.97.98-6.3.04-.03.08-.05.13-.06,2.63-.91,3.45-1.52,3.08-5.34-.66-2.14-.54-3.95.34-5.11.48-.63,1.44-1.38,3.25-1.32.11,0,.22.04.31.11,1.15.86,2.96,1.69,4.27,1.48.49-.08.86-.29,1.15-.65.11-.82.28-1.6.45-2.36.32-1.45.63-2.82.44-4.24-.02-.14.02-.29.11-.4,1.77-2.37,4.46-2.23,6.24-2.14,3.96-.17,4.89-.61,5.58-.92.57-.26,1.06-.49,2.55-.5.27-.04,1.4-.14,2.32.58.66.52,1.06,1.32,1.18,2.38.76.44,1.29.47,2.25.4.09-.1.17-.2.25-.29.65-.75,1.21-1.41,2.48-1.8.29-.23.57-.44.83-.64,1.46-1.1,2.19-1.66,2.12-3.5-.02-.41-.04-.79-.06-1.15-.19-3.55-.28-5.17,2.5-8.72.69-.88,1.32-1.84,1.97-2.87.76-1.19,1.63-2.53,2.78-4.01l.5-.57c2.1-2.37,4.71-5.31,7.02-7.22.16-.13.38-.16.57-.08.45,0,.88.01,1.29.02,2.31.02,3.99.03,5.52,1.01.68.5,1.64.72,2.48.59.45-.07,1.08-.27,1.49-.85.03-.04.07-.08.11-.11,2.06-1.56,3.84-1.95,6.34-1.39.46.02.93.07,1.39.13,1.71.2,3.33.39,4.56-1.05,1.5-2.53,2.71-2.52,10.17-2.33.72-.58,1.75-.89,2.87-.86,1.22.03,2.31.46,2.99,1.18l.26.32c1.23,1.53,1.8,2.24,6.35,1.63.37-.41.66-.93.98-1.47.57-.99,1.22-2.12,2.46-2.81.26-.18.57-.4.88-.62,2.6-1.82,5.84-4.09,9.56-4.83.25-.05.5.08.61.31.36.78.97,1.17,1.61,1.59,1.17.76,2.49,1.62,2.28,4.64-.04.45-.08.87-.12,1.28-.3,3.02-.55,5.63,1.91,12.66,0,.02.02.05.02.08,1.56,7.93,2.14,11.76,2.24,17.5-.48,7.29-1.21,10.81-2.32,16.14l-.21,1.02c.09,5.34.73,6.98,1.47,8.88.14.35.28.71.42,1.1.02.06.03.12.03.19,0,.87.05,1.52.1,2.15.15,2,.28,3.72-1.02,10.7-1.65,7.26-2.62,13.9-2.72,16.72,0,.08-.02.16-.06.24-.94,1.77-.9,3.15.13,4.34.02.02.04.05.05.07.25.41.52.8.78,1.17,1.11,1.6,2.15,3.1,1.61,5.61-.82,2.93-.97,5.55-.37,6.12.05.05.18.17.59.05.36-.26.67-.48.94-.67,1.52-1.06,1.71-1.19,3.19-3.58.03-.05.07-.09.12-.13.85-.71,1.87-1.39,2.92-1.06.91.29,1.56,1.26,2.01,2.96,0,.04.02.07.02.11.17,3.22-.47,7.85-1.73,12.39-.18,1.09-.32,2.17-.47,3.2-.43,3.12-.83,6.07-1.98,9.21-.45,1.67-.98,2.4-1.45,3.04-.57.78-1.02,1.4-1.24,3.85.17,1.81.16,3.41-.02,4.87-.03.27-.25.47-.52.48h-.15c-1.35.08-3.39.18-4.53.08-.02,0-.04,0-.06,0-2.46-.49-3.58.41-4.66,1.29-.28.22-.56.45-.86.65-.08.05-.16.08-.25.09-2.79.28-3.47.13-4.66-.62-.04-.03-.08-.06-.11-.09-1.62-1.74-4.35-2.58-5.79-2.73-.05,0-.09-.02-.14-.03-3.27-1.22-4.87-.33-6.93,1.18-1.1,1.13-2.79,2.59-4.59,4.13-1.21,1.04-2.46,2.11-3.5,3.07-.09.08-.19.13-.31.14-2.51.29-3.39-.21-4.16-.65-.35-.2-.63-.36-1.05-.43-.12-.02-.23-.08-.31-.17-.8-.86-2.12-.89-3.15-.74-.6.68-1.92,1.89-4.55,3.28-.71.43-1.32.6-1.82.73-.62.16-1.03.27-1.53.84-.11.13-.27.19-.44.18-2.27-.12-2.78.17-3.54.62l-.2.12c-.08.04-.16.07-.25.07l-.67.03c-1.36.06-2.57.1-3.61.1Zm-3.26-1.44c.96.51,5.35.3,6.82.23l.54-.02.08-.05c.93-.54,1.62-.87,3.9-.78.66-.65,1.28-.81,1.89-.98.47-.12.96-.25,1.56-.62,2.82-1.48,4-2.72,4.38-3.18.08-.1.2-.17.33-.19,1.81-.32,3.26,0,4.21.91.52.12.88.32,1.23.52.64.36,1.3.74,3.32.54,1.03-.94,2.23-1.97,3.39-2.98,1.79-1.54,3.49-3,4.55-4.1.02-.02.05-.04.07-.06,2.21-1.62,4.19-2.75,7.94-1.38,1.4.16,4.43.98,6.36,3.01.86.53,1.28.68,3.77.43.22-.15.44-.33.67-.52,1.16-.93,2.59-2.1,5.54-1.52.99.08,2.74,0,4.04-.07.12-1.27.1-2.66-.04-4.23,0-.03,0-.07,0-.1.24-2.8.83-3.6,1.45-4.45.43-.59.88-1.21,1.29-2.72,1.12-3.08,1.52-5.97,1.94-9.03.14-1.05.29-2.14.48-3.26,0-.02,0-.04.01-.06,1.23-4.41,1.86-8.9,1.7-12.01-.42-1.56-.92-2.02-1.27-2.13-.53-.17-1.24.32-1.81.8-1.56,2.51-1.86,2.71-3.45,3.83-.28.2-.61.43-1,.71-.04.03-.09.06-.14.07-.9.31-1.46.03-1.77-.26-1.44-1.36-.32-5.84.05-7.19.43-2-.4-3.2-1.45-4.71-.26-.38-.53-.77-.79-1.19-1.28-1.5-1.38-3.33-.3-5.43.13-2.93,1.11-9.57,2.74-16.77,1.27-6.81,1.14-8.47,1-10.39-.05-.63-.1-1.28-.1-2.14-.13-.35-.25-.67-.38-.98-.78-2-1.46-3.74-1.55-9.32,0-.04,0-.08.01-.12l.22-1.08c1.1-5.28,1.82-8.78,2.29-15.94-.1-5.64-.64-9.26-2.21-17.22-2.53-7.24-2.26-9.95-1.95-13.1.04-.41.08-.82.12-1.26.17-2.37-.7-2.93-1.78-3.64-.62-.4-1.31-.85-1.8-1.66-3.33.77-6.2,2.79-8.75,4.57-.32.22-.63.44-.94.65-1.02.57-1.54,1.47-2.09,2.42-.37.64-.75,1.3-1.28,1.83-.08.08-.19.14-.31.16-5.12.71-6.06-.15-7.56-2l-.23-.29c-.44-.47-1.27-.78-2.19-.8-.91-.02-1.76.25-2.26.72-.11.1-.25.16-.39.15-7.64-.2-8.26-.17-9.43,1.82-.02.03-.03.05-.05.08-1.62,1.92-3.81,1.67-5.56,1.46-.48-.06-.93-.11-1.35-.12-.04,0-.07,0-.1-.01-2.2-.5-3.63-.21-5.42,1.14-.51.66-1.25,1.08-2.17,1.22-1.14.18-2.39-.12-3.28-.77-1.24-.79-2.7-.8-4.91-.82-.42,0-.87,0-1.34-.02-2.2,1.86-4.69,4.66-6.7,6.93l-.48.54c-1.1,1.41-1.95,2.73-2.7,3.9-.67,1.05-1.31,2.03-2.03,2.95-2.53,3.23-2.46,4.52-2.27,7.98.02.36.04.75.06,1.16.1,2.42-1.02,3.26-2.56,4.43-.28.21-.57.43-.89.68-.06.05-.12.08-.19.1-1.03.29-1.42.74-2.06,1.49-.13.15-.27.31-.42.47-.09.1-.22.17-.36.18-1.26.1-2.12.11-3.38-.69-.15-.09-.24-.25-.25-.43-.05-.87-.31-1.5-.77-1.86-.64-.51-1.51-.36-1.51-.36-.03,0-.07,0-.1,0-1.28,0-1.63.16-2.13.39-.81.37-1.82.84-6.04,1.02-2.1-.1-3.91-.05-5.22,1.53.15,1.53-.17,2.98-.48,4.39-.17.78-.35,1.58-.45,2.4-.01.09-.04.17-.1.25-.47.67-1.13,1.07-1.95,1.21-1.67.27-3.67-.66-4.95-1.58-1,0-1.73.3-2.17.89-.65.86-.71,2.38-.15,4.17.01.04.02.07.02.11.43,4.26-.61,5.43-3.74,6.52-1.35.91-2.22,1.86-.62,4.73,3.14,3.08,2.74,6.27,1.82,9.25-.09.93-.15,1.89-.2,2.83-.12,2.12-.22,3.96-.71,5.1-.75,8.71.45,9.2,3.99,10.63l.06.02c4.83.66,5.51,4.03,6.38,8.29l.09.43c.31,2.25.19,3.37-.42,4.03-.65.71-1.69.66-2.99.6-.19,0-.39-.02-.59-.02-2.96.08-4.67,2.58-6.48,5.22-.21.31-.42.61-.63.92-.05.07-.11.12-.18.16-1.94,1.12-4.63,1.84-7.07,1.9,1.69,3.08,4.91,9.73,3.13,13.1v.02c.97,1.04,4.54,4.76,6.88,6.19.08.06,4.89,3.46,7.87,4.44,4.96,1.7,7.92,2.9,9.33,4.39,1.79,1.57,2.07,3.48.78,5.66-.64,2.12-1.05,3.66-.56,4.3.3.39,1.06.56,2.26.52,2.43-.07,3.98-.35,5.22-.57,1.05-.19,1.88-.34,2.84-.3,1.66-.03,2.17-.26,2.71-.5.65-.29,1.31-.58,3.48-.58.51.01.73-.04,1.1-.13.9-.23,2.26-.58,8.37-.34,1.02.08,3.57,1.02,5.82,2.15,3.04,1.23,4.85,2,5.79,3.18Zm42.66-146.71h0,0Z"/><path class="uuid-547f55e8-1644-4f56-8dd6-9a94ce59e4a9" d="m59.37,323.61c-.21,0-.46-.02-.74-.07-.06-.01-.13-.03-.18-.07-1.68-.96-2.14-3.37-2.26-4.46-.69-1.42-2.7-4.68-4.41-3.93-.1.04-.21.06-.32.04-.21-.04-.41-.07-.64-.1-1.67-.26-3.75-.58-4.22-1.8-.21-.55-.05-1.16.47-1.8.03-.04.07-.07.11-.1.02-.02,2.5-1.77,3.64-4.99.08-.27.16-.53.23-.78.73-2.58,1.28-3.58,7.9-7.61.09-.06.2-.09.31-.08,3.78.14,8.14-.05,8.98-.56-.04-.11-.05-.24-.02-.35.28-.96-.02-1.13-1.81-1.65-.55-.16-1.17-.34-1.83-.59-3.68-.31-4.56.1-5.26.42-.42.19-.85.39-1.65.4-2.25.36-3.63.22-4.47-.47-.98-.8-1.02-2.16-1.07-3.73v-.27c-.01-.14.03-.27.12-.38,1.8-2.11,3.39-3.43,7.39-6.17.06-.04.13-.07.21-.09,2.1-.4,4.59-1.08,5.25-1.55.08-.61.13-1.2.17-1.72.15-1.72.25-2.97,1.16-3.55.62-.4,1.46-.38,2.72.06.91.39,1.78.75,2.61,1.09,3.42,1.41,5.45,2.28,6.15,3.04.56.29.97.43,1.32.29.78-.31,1.66-1.92,2.77-5.09.01-.04.03-.07.05-.11.71-1.16.59-1.48.56-1.54-.26-.43-2.39-.3-3.19-.25-.02,0-.05,0-.07,0-1.14-.07-1.36.03-1.4.05,0,0-.01.03-.03.05-.31.51-.77.81-2.35.91h-.01c-2.99,0-4.54-.48-4.91-1.51-.29-.79.17-1.67,1.4-2.7.03-.02.06-.05.1-.06,1.31-.7,2.5-1.31,3.54-1.85,2.16-1.12,4.21-2.18,4.7-2.7-.14-.07-.44-.17-1.02-.28-1.68.15-3.18.75-4.64,1.33-1.68.67-3.27,1.3-4.98,1.19-4.85.09-5.21-.26-6.98-3.48-.22-.4-.46-.84-.75-1.34-.04-.07-.06-.14-.07-.22-.27-2.84,1.68-3.27,4.63-3.93,1.14-.25,2.43-.54,3.95-1,1.54-.47,3.18-.84,4.76-1.21,4.14-.95,8.05-1.85,8.63-3.98.01-.05.03-.09.06-.14,1.99-3.36,1.66-5.06,1.39-5.25-.14-.09-.23-.25-.24-.41-.01-.17.05-.33.18-.45,1.26-1.16,3.5-2.29,6.66-3.34.06-.02.12-.03.17-.03,1.18,0,2.09.46,2.97.9.88.44,1.71.86,2.83.86.09,0,.17.02.25.06,2.32,1.18,2.99,2.49,3.91,4.8.13,0,.27.01.41.02,1.28.06,2.87.14,4.74-.9,2.01-1.3,4.62-2.23,8.18-2.88,2.81-1.47,3.32-1.51,5.85-1.51.15,0,.3.06.4.17l.05.06c2.4,2.53,2.91,3.07,3.2,6.3.66,2.57,1.85,2.92,3.23,3.32.37.11.75.22,1.13.37.83-.23.89-.25,1.47-.49.24-.1.56-.23,1.05-.43.89-1.98,1.38-2.29,2.96-3.08l.18-.09c.08-.04.16-.06.25-.06,3.67,0,4.81-1.45,5.91-2.86.29-.38.6-.77.94-1.12.12-.13.3-.19.48-.16,2.01.31,6.98,1.02,9.9,1.03.47-.07,3.72-.42,6.47,2.66.02.02.04.05.06.08.26.42,6.29,10.32,4.02,14.64l-.17.35c-1.62,3.44-3.29,6.99-8.96,8.75-.4.21-3.74,1.97-5.58,3.87-1.53,2.96-2.54,4.95-2.74,9.51,0,.06-.01.11-.03.17-.32.88-.65,1.7-.95,2.42-.72,1.76-1.28,3.16-1.35,4.5.07,2.41.99,3.95,1.96,5.58.39.65.79,1.33,1.12,2.05l.24.51c1.24,2.65,2.52,5.38.84,8.11-.84,1.34-1.42,2.4-1.93,3.35-.73,1.35-1.3,2.41-2.26,3.53-.12.15-.32.22-.51.19-1.08-.17-3.03-.47-4.02-.56-.06,0-.13-.02-.19-.05-1.32-.62-5.68-.62-7.12-.62-2.52,0-3.47,1.33-4.47,2.74-.19.26-.37.52-.56.76-.08.1-.2.18-.33.2-2.1.41-4.68.71-6.27-.5-1.67.2-3.05-.26-4.66-.9-.56.01-1.18.03-1.84.04-4.5.11-8.05.17-9.38-.26-2.64-.34-2.99-.85-2.99-2.66v-.11c-.07-.9-.22-1.76-.4-2.77-.17-.97-.37-2.08-.54-3.51-.1-.81-.39-1.36-.85-1.64-.65-.4-1.5-.2-1.85-.09-1.23.98-1.53,1.95-1.82,2.88-.28.9-.57,1.83-1.68,2.44-.07.04-.15.06-.22.07-2.94.23-3.73-.55-4.71-3.17-1.98-2.42-3.07-3.25-5.48-3.37-4.97,0-5.25.17-5.99.63l-.17.1c-.09.05-.19.08-.29.08-2.45-.07-3.11,1.36-4.7,5.42-.25.64-.53,1.34-.83,2.09-.54,1.99-3.18,5.43-6.16,6.35-.06.02-.13.03-.19.02-2.65-.15-3.57.17-4.23.4-.4.14-.76.27-1.3.27Zm-.46-1.14c.64.1.91,0,1.39-.17.74-.26,1.76-.61,4.55-.47,2.56-.85,4.9-3.9,5.34-5.59,0-.02.01-.05.02-.07.31-.76.59-1.46.84-2.11,1.49-3.8,2.39-6.11,5.59-6.13l.03-.02c1.02-.63,1.5-.79,6.6-.79,2.9.15,4.25,1.25,6.36,3.85.04.05.07.1.09.16.87,2.36,1.31,2.71,3.5,2.55.65-.4.82-.97,1.07-1.75.31-1.01.71-2.27,2.27-3.48.05-.04.1-.06.15-.08.5-.18,1.78-.51,2.87.16.76.47,1.22,1.29,1.36,2.45.16,1.4.36,2.49.53,3.45.19,1.03.35,1.93.42,2.92v.15c0,1.23,0,1.31,2.08,1.57.04,0,.07.01.11.03,1.2.42,5.74.3,9.05.22.7-.02,1.36-.03,1.95-.05.07,0,.15.01.21.04,1.68.67,2.89,1.09,4.43.84.16-.03.33.02.45.13,1.18,1.05,3.55.78,5.33.45.14-.18.27-.37.41-.56,1.02-1.43,2.28-3.2,5.37-3.2,4.06,0,6.38.21,7.49.69.91.09,2.45.31,3.7.51.77-.95,1.29-1.91,1.93-3.1.52-.96,1.1-2.04,1.96-3.4,1.36-2.21.31-4.46-.91-7.05l-.24-.51c-.31-.67-.68-1.29-1.07-1.95-1-1.68-2.04-3.42-2.12-6.16.08-1.58.67-3.05,1.43-4.91.29-.72.59-1.47.9-2.3.22-4.79,1.34-6.96,2.89-9.96.02-.05.05-.09.09-.13,2.07-2.17,5.81-4.08,5.97-4.17.03-.01.06-.03.09-.04,5.25-1.62,6.75-4.81,8.34-8.18l.18-.38c1.93-3.67-3.53-12.83-3.95-13.53-2.48-2.74-5.35-2.29-5.48-2.27-.03,0-.06,0-.1,0-2.85,0-7.62-.67-9.82-1-.23.25-.45.53-.67.82-1.19,1.52-2.54,3.24-6.65,3.28l-.06.03c-1.41.7-1.7.85-2.53,2.74-.06.13-.17.24-.3.29-.6.24-.97.39-1.24.51-.66.28-.74.31-1.79.59-.12.03-.26.02-.38-.03-.36-.17-.75-.28-1.16-.4-1.5-.43-3.19-.92-4-4.15,0-.03-.01-.06-.01-.09-.25-2.84-.54-3.2-2.79-5.57-2.18,0-2.55.05-5.17,1.42-.05.03-.1.04-.16.05-3.45.63-5.96,1.5-7.89,2.75-2.18,1.21-4.02,1.12-5.36,1.06-.26-.01-.51-.02-.74-.02s-.43-.14-.51-.35c-.92-2.36-1.42-3.47-3.4-4.51-1.31-.03-2.31-.53-3.19-.97-.78-.39-1.51-.76-2.39-.78-2.66.89-4.6,1.82-5.79,2.75.51,1.04.26,3.17-1.47,6.12-.81,2.71-4.99,3.67-9.42,4.69-1.57.36-3.19.73-4.69,1.19-1.56.47-2.93.78-4.03,1.02-3.06.68-3.91.94-3.79,2.63.26.46.49.88.7,1.26,1.58,2.88,1.64,3,6.04,2.91,1.5.1,2.98-.49,4.55-1.12,1.55-.62,3.16-1.26,5.03-1.41.05,0,.1,0,.14,0,1.17.21,1.96.5,2.07,1.19.15,1.01-1.24,1.73-5.37,3.87-1.02.53-2.18,1.13-3.47,1.82-.87.74-1.1,1.24-1.03,1.44.03.08.39.79,3.85.79,1.26-.08,1.38-.27,1.44-.38.35-.59.87-.73,2.4-.64,2.03-.12,3.62-.14,4.17.79.46.77-.03,1.81-.54,2.63-1.26,3.6-2.25,5.25-3.39,5.7-.84.33-1.64-.03-2.33-.39-.07-.04-.13-.09-.18-.15-.46-.6-3.17-1.72-5.79-2.8-.83-.34-1.71-.71-2.59-1.08-.84-.29-1.43-.35-1.72-.16-.45.29-.54,1.41-.65,2.72-.05.59-.11,1.26-.2,1.97-.01.11-.06.21-.13.29-.85.96-4.81,1.77-5.86,1.98-3.73,2.56-5.28,3.84-6.94,5.75v.06c.05,1.36.08,2.43.67,2.92.56.46,1.75.54,3.64.23.03,0,.06,0,.09,0,.59,0,.84-.12,1.23-.3.83-.38,1.86-.85,5.9-.51.05,0,.11.02.16.04.63.25,1.26.43,1.8.59,1.5.43,3.05.88,2.63,2.79.09.25.08.51-.05.74-.71,1.32-6.44,1.32-9.91,1.2-6.43,3.92-6.66,4.73-7.27,6.88-.07.25-.15.53-.24.82-1.17,3.31-3.54,5.17-3.99,5.5-.14.18-.33.47-.25.66.24.63,2.35.95,3.36,1.11.18.03.35.05.51.08,3.01-1.1,5.62,4.38,5.73,4.61.03.06.04.12.05.18.07.66.38,2.86,1.64,3.66Z"/><path class="uuid-547f55e8-1644-4f56-8dd6-9a94ce59e4a9" d="m135.16,403.87c-.06,0-.11,0-.17,0-1.03-.09-2.07-.99-3.27-2.85-.1-.16-.12-.36-.04-.53.17-.37,1.74-3.56,3.77-3.45.11,0,.21.04.29.1.57.41,3.4,2.56,3.06,4.21-.13.62-.62,1.05-1.47,1.28-.61.65-1.29,1.25-2.17,1.25Zm-2.34-3.2c1.12,1.66,1.85,2.06,2.27,2.09.47.03.93-.34,1.55-1.01.08-.08.17-.14.28-.16.28-.06.75-.21.81-.47.13-.65-1.31-2.11-2.48-2.99-.9.1-1.93,1.59-2.43,2.54Z"/><path class="uuid-547f55e8-1644-4f56-8dd6-9a94ce59e4a9" d="m109.49,411.29c-2.93,0-5.54-.78-7.83-4.41-.03-.05-.05-.1-.07-.16-.01-.05-.31-1.3.54-2.41.79-1.03,2.24-1.57,4.33-1.61,2.43,0,3.37-.32,4.12-.57.58-.2,1.13-.38,2.09-.34.02,0,.05,0,.07,0,3.13.58,4.11,2.84,3.99,4.13-.05.3-.09.55-.12.79-.3,2.03-.58,3.94-3.8,4.36-1.15.11-2.26.21-3.33.21Zm-6.84-4.91c2.74,4.28,5.81,4,10.05,3.6,2.37-.31,2.53-1.41,2.83-3.42.04-.25.08-.51.12-.77.06-.72-.59-2.43-3.06-2.9-.72-.04-1.09.09-1.64.28-.79.27-1.86.63-4.47.63-1.69.03-2.89.44-3.46,1.16-.44.57-.4,1.2-.37,1.42Z"/><path class="uuid-547f55e8-1644-4f56-8dd6-9a94ce59e4a9" d="m101.96,423.73c-1.62,0-2.51-1.74-3.23-3.17-1.68-1.84-1.8-4.27-1.24-5.33.08-.14.21-.25.37-.28,2.83-.64,5,.94,6.04,1.69.16.12.33.24.4.27.12.06.22.17.27.3,1.03,2.73-1.12,5.86-2.29,6.45-.07.03-.15.05-.23.06-.03,0-.06,0-.09,0Zm-3.58-7.76c-.23.81-.04,2.56,1.22,3.9.04.04.07.08.09.13.72,1.44,1.34,2.56,2.2,2.63.81-.53,2.33-2.83,1.71-4.85-.1-.07-.21-.15-.34-.24-.88-.64-2.66-1.93-4.87-1.56Z"/><path class="uuid-547f55e8-1644-4f56-8dd6-9a94ce59e4a9" d="m78.79,422.22c-.31,0-.61-.05-.89-.14-.98-.33-1.65-1.21-2.01-2.61-.02-.08-.02-.16,0-.24,0-.05,1.07-5.16,6.18-4.49.06,0,.13.03.18.06,1.75.92,2.7,1.96,2.74,3.02.02.54-.2,1.34-1.36,2.07-1.96,1.56-3.55,2.34-4.83,2.34Zm-1.8-2.9c.26.95.69,1.52,1.26,1.71.7.23,2.08.07,4.71-2.03.02-.01.04-.03.05-.04.59-.37.88-.74.87-1.11-.02-.6-.79-1.35-2.06-2.03-3.65-.41-4.66,2.82-4.83,3.5Z"/><path class="uuid-547f55e8-1644-4f56-8dd6-9a94ce59e4a9" d="m72.05,428.45c-1.4,0-2.81-1.41-4.31-4.31-.03-.05-.05-.11-.06-.17-.1-.68-.89-6.65,2.18-7.78.07-.02.14-.04.21-.03,3.03.12,4.04,1.38,4.35,2.42.14.39.28.78.41,1.15.82,2.26,1.41,3.9.26,5.84-.86,1.91-1.83,2.86-2.99,2.89-.02,0-.04,0-.06,0Zm-3.28-4.73c1.66,3.19,2.8,3.65,3.31,3.63.67-.02,1.37-.8,2.03-2.27,0-.02.02-.04.03-.06.91-1.51.47-2.73-.33-4.93-.13-.37-.28-.76-.42-1.18-.37-1.24-1.93-1.58-3.23-1.65-1.76.79-1.61,4.83-1.38,6.46Z"/><path class="uuid-547f55e8-1644-4f56-8dd6-9a94ce59e4a9" d="m58.39,441.25c-.96,0-2.06-.13-3.39-.33-.15-.02-.29-.11-.38-.24-.09-.13-.11-.29-.08-.44.05-.2,1.26-4.85,5.26-5.07.06,0,.11,0,.16.02,2.82.7,4.03,1.37,4.18,2.29.09.54-.22,1.05-.91,1.5-1.51,1.71-2.87,2.27-4.84,2.27Zm-2.58-1.33c3.6.49,4.92.26,6.65-1.73.04-.04.08-.08.12-.1.44-.28.48-.44.48-.44,0-.02-.14-.57-3.27-1.37-2.39.18-3.56,2.53-3.98,3.65Z"/><path class="uuid-547f55e8-1644-4f56-8dd6-9a94ce59e4a9" d="m21.28,427.16c-.81,0-1.77-.28-2.97-.86-2.53-1.26-4.18-3.52-4.25-3.61-.23-.27-.61-1.02-.41-1.89.24-1.03,1.2-1.92,2.85-2.64.57-.56,1.62-.48,2.44-.2,1.02.35,2.21,1.17,2.28,2.36.25.55.82.9,1.41,1.26.94.58,2.12,1.29,1.82,3,0,.05-.02.09-.04.14-.57,1.23-1.24,1.95-2.11,2.27-.32.11-.65.17-1.02.17Zm-3.56-8.32c-.25,0-.42.06-.46.11-.06.07-.13.13-.22.17-1.7.72-2.2,1.44-2.32,1.91-.14.54.19.95.2.97.04.05,1.6,2.16,3.87,3.3,1.43.69,2.43.89,3.13.64.56-.2,1.03-.72,1.45-1.62.13-.88-.37-1.23-1.32-1.8-.72-.44-1.53-.94-1.9-1.88-.02-.06-.04-.13-.04-.2,0-.6-.78-1.17-1.54-1.44-.35-.12-.64-.16-.86-.16Zm6.19,5.64h0,0Zm-2.69-4.05h0,0Z"/><path class="uuid-547f55e8-1644-4f56-8dd6-9a94ce59e4a9" d="m30.87,418c-.18,0-.37-.02-.55-.06-1.15-.26-2.05-1.29-2.83-3.25-.82-.78-4.95-4.91-4.58-7.73.11-.81.57-1.45,1.35-1.87.06-.03.12-.05.18-.06,2.51-.38,3.77,1.07,5.1,2.6.47.54.95,1.09,1.5,1.59.07-.89-.17-1.79-.4-2.66-.2-.76-.4-1.48-.4-2.2,0-.1.03-.2.08-.29.42-.69.89-.95,1.26-1.15.58-.32,1.07-.59.88-4.3,0-.12.03-.24.1-.34.55-.81,1.34-1.74,2.5-1.8,1.11-.04,2.31.7,3.68,2.3.43.28.83.54,1.21.78,2.3,1.46,3.82,2.43,3.73,5.32,0,.02,0,.04,0,.06-.14,1-.07,1.59-.01,2.06.21,1.7.09,1.79-6.26,6.71l-.49.38c-2.25,2.14-4.28,3.92-6.05,3.92Zm-6.17-11.9c-.42.25-.64.57-.7,1-.27,2.03,3.04,5.65,4.33,6.87.06.06.11.13.14.2.64,1.64,1.32,2.52,2.09,2.69,1.24.28,3-1.11,5.62-3.6.01-.01.03-.03.04-.04l.52-.4q5.97-4.63,5.84-5.7c-.06-.5-.15-1.19.01-2.32.07-2.24-1.03-2.94-3.22-4.32-.4-.26-.84-.53-1.3-.84-.04-.03-.08-.06-.11-.1-1.14-1.35-2.09-2.02-2.84-1.97-.51.03-.98.38-1.54,1.17.18,3.93-.43,4.57-1.46,5.13-.28.16-.53.29-.77.63.03.53.19,1.13.36,1.76.33,1.24.71,2.65.22,4.13-.06.17-.19.3-.36.35-.17.05-.35.02-.49-.08-.97-.72-1.71-1.57-2.36-2.32-1.25-1.44-2.16-2.48-4.01-2.24Zm18.44-1.24h0,0Z"/><path class="uuid-547f55e8-1644-4f56-8dd6-9a94ce59e4a9" d="m33.36,352.76h0c-.58,0-1.02-.5-1.68-1.53-.54-.21-.99-1.05-1.32-2.5-.02-.07-.83-2.67.8-5.06.05-1.11.58-1.89,1.33-1.92.33-.02,1.42.12,1.68,2.59.24.66.44,1.18.62,1.63.59,1.49.89,2.23.8,4.18,0,.1-.04.2-.1.29-.22.32-.4.6-.56.86-.59.92-.94,1.47-1.58,1.47Zm-1.29-2.58c.16.02.32.11.41.26.49.79.74,1.09.87,1.19.15-.14.42-.56.66-.93.14-.23.31-.48.49-.75.05-1.6-.19-2.19-.73-3.58-.19-.47-.41-1.03-.66-1.73-.02-.04-.02-.09-.03-.13-.13-1.26-.47-1.64-.56-1.67-.04.03-.27.34-.27,1.01,0,.12-.04.23-.11.32-1.43,1.96-.74,4.24-.73,4.27.17.76.47,1.53.65,1.74Zm.04.04h0,0Zm-.4-6.37h0,0Z"/><path class="uuid-547f55e8-1644-4f56-8dd6-9a94ce59e4a9" d="m60.84,426.76s-.07,0-.1,0c-1.41-.26-4.89-1.17-7.08-4.2-1.49-1.11-2.32-1.92-2.47-2.98-.11-.77.19-1.6.93-2.59.1-.8-.27-1.17-.78-1.67-.98-.95-1.65-1.93-.05-4.26.01-.38.03-.75.04-1.08.13-4.02.18-5.23,3.59-8.06.02-.01.03-.03.05-.04,1.83-1.19,2.26-1.84,2.3-2.18.03-.25-.18-.51-.5-.84-.94.19-3.04,2.15-3.97,3.02-.18.17-.35.33-.5.46-.06.06-.13.1-.21.12-1.54.46-2.34.5-2.84.12-.49-.36-.49-.95-.49-1.47,0-.89,0-1.73-1.91-2.19-1.09-.31-4.16-1.03-5.55-.8-.06,0-.12.01-.18,0-2.3-.36-3.38-1.11-4.1-4.79,0-.02,0-.04,0-.06-.03-.34-.07-.72-.1-1.13-.39-4.15-.99-10.43,1.91-11.29.03,0,.06-.02.09-.02,2.02-.24,2.44.76,2.88,1.81.25.6.54,1.28,1.15,2.03.04.05.07.1.09.16.61,1.64.62,2.61.63,3.65,0,.51,0,1.04.08,1.7.66.5,1.23,1.26,1.83,2.05.7.94,1.43,1.91,2.41,2.65,1.37.76,2.74,1.03,3.2.61.36-.32.28-1.21-.22-2.45-.37-.3-.81-.61-1.27-.94-1.9-1.34-4.26-3.01-2.79-5.36.07-.11.18-.19.3-.23,1.7-.54,3.45.59,4.99,1.57.45.29.88.57,1.27.78,1.08.42,1.72.81,2.23,1.13,1.08.66,1.56.96,5.38.54-.69-.99-2.08-1.98-3.76-3.17-1.26-.89-2.68-1.9-4.12-3.14l-.25-.03c-5.75-.75-8.49-1.23-8.77-2.47-.11-.48.14-.92.75-1.32.06-.04.13-.07.21-.08,3.51-.6,7.22-.34,8.78.61.37.03,1.08.06,1.28-.12.22-.21.22-1.05.21-2.13v-.65c0-.1.03-.2.08-.29,1.07-1.73,1.44-1.82,3.22-1.59.55.07,1.31.17,2.34.22.19,0,.36.12.45.28.41.45,3.56.28,5.25.19.39-.02.77-.04,1.13-.06,0-.02,0-.04,0-.06-.08-.33-1.06-.81-1.86-1.2-.49-.24-1.04-.51-1.56-.82-2.6-.55-2.57-1.83-2.49-5.2.03-1.2.07-2.7.01-4.62,0-.05,0-.11.02-.16.12-.42.05-.56.05-.56-.23-.08-1.51.44-2.52,1.64-.53.8-1,1.24-1.38,1.6-.72.68-1.02.97-.84,3.41.37.96.68,2.16.07,3.12-.55.85-1.7,1.3-3.52,1.4-.04,0-.08,0-.12,0-.41-.07-.84-.16-1.3-.26-2.07-.43-4.64-.98-6.64.1-.05.03-.11.05-.17.06-2.49.4-4.16-.61-6.7-2.13-.93-.56-1.98-1.19-3.26-1.87-.13-.07-.22-.18-.27-.32-.79-2.49.56-6.42,3.43-10.02.05-.06.11-.11.17-.14.61-.32,1.17-.39,1.68-.2,1.01.37,1.52,1.6,2.16,3.16.26.63.53,1.29.86,1.94.01.02.02.05.03.07.91,2.74,1.77,3.34,2.03,3.34h0c.15,0,.46-.26.73-1.21-.07-1.29-.69-2.68-1.3-4.02-.66-1.46-1.28-2.85-1.23-4.14,0-.08.03-.16.06-.24l.16-.3c1.36-2.52,1.92-3.57-3.43-7.29-.02-.02-.04-.03-.06-.05-1-.94-1.89-1.71-2.67-2.38-1.95-1.68-3.12-2.69-3.08-3.94.03-.88.66-1.7,2.16-2.82.02-.01.03-.02.05-.03.67-.39,1.26-.76,1.77-1.08,1.6-1,2.48-1.54,3.24-1.13.75.42.88,1.56.88,3.95.27,1.75,1.09,6.86,2.37,7.46.12.06.31.1.64-.1.06-.03.12-.06.19-.07,1.92-.33,2.1-.73,3.49-3.8l.19-.43c-.06-1.61-1.48-2.72-2.74-3.69-.72-.56-1.35-1.05-1.64-1.6-.09-.17-.18-.32-.26-.45-.72-1.22-.85-1.92.87-3.55.74-.7,1.04-1.27,1.11-1.54-.13.03-.35.11-.66.29-.04.02-.08.04-.12.05-.18.05-.35.1-.52.15-1.93.58-3.6,1.09-6.8-2.01-.69-.77-1.08-1.37-1.01-2.08.11-1.1,1.27-1.98,4.08-4.1l.58-.53q2.25-2.07,2.16-6.42c0-.08-.05-.46.23-.75.3-.31.71-.29,1.23-.26.56.03,1.4.08,2.49-.25.08-.28.16-.56.23-.84.47-1.71.95-3.47,1.81-5.25-.03-.24.1-.47.33-.57,3.08-1.36,5.78,4.31,5.89,4.55.03.06.04.12.05.18.07.66.38,2.86,1.64,3.66.64.1.91,0,1.39-.17.74-.26,1.76-.61,4.55-.47,2.56-.85,4.9-3.9,5.34-5.59,0-.02.01-.05.02-.07.31-.76.59-1.46.84-2.11,1.49-3.8,2.39-6.11,5.59-6.13l.03-.02c1.02-.63,1.5-.79,6.6-.79,2.9.15,4.25,1.25,6.36,3.85.04.05.07.1.09.16.87,2.36,1.31,2.71,3.5,2.55.65-.4.82-.97,1.07-1.75.31-1.01.71-2.27,2.27-3.48.05-.04.1-.06.15-.08.5-.18,1.78-.51,2.87.16.76.47,1.22,1.29,1.36,2.45.16,1.4.36,2.49.53,3.45.19,1.03.35,1.93.42,2.92v.15c0,1.23,0,1.31,2.08,1.57.04,0,.07.01.11.03,1.2.42,5.74.3,9.05.22.7-.02,1.36-.03,1.95-.05.07,0,.15.01.21.04,1.68.67,2.89,1.09,4.43.84.16-.03.33.02.45.13,1.18,1.05,3.55.78,5.33.45.14-.18.27-.37.41-.56,1.02-1.43,2.28-3.2,5.37-3.2,4.06,0,6.39.21,7.49.69.99.09,2.72.35,4.01.56.2.03.36.17.43.35.07.19.03.4-.1.55l-.08.1c-.06.07-.12.14-.18.21.13,1.03.37,2.42.62,3.88.4,2.34.85,4.99.97,6.82.3,3.68.6,4.9,1.99,5.86.59.45,1.22.9,1.86,1.36,2.28,1.65,4.64,3.36,5.4,4.8,2.8,4.24,4.99,9.1,5.7,12.64.06.29-.13.58-.42.65-1.16.27-2.53.83-4.2,1.72-.04.02-.09.04-.14.05-2.19.47-3.63,1.17-4.57,3.32-.05.12-.14.22-.26.27-2.13,1.06-3.3.24-4.83-1.78-.02-.02-.03-.05-.05-.07-.31-.58-.88-.64-1.18-.62-.68.04-1.33.48-1.57,1.07-1.01,2.27-.69,4.64-.43,6.54.06.43.12.84.15,1.22.46,1.23,1.47,3.94,2.5,4.21.15.04.38.05.76-.26.1-.08.22-.13.35-.13.23,0,.44.02.64.03.74.06,1.11.1,2.45-1.91.02-.03.04-.06.07-.08,1.9-1.9,3.36-3.11,6.19-2.69,2.39-.08,3.39.17,3.71.89.29.66-.22,1.34-.69,1.84-.06.49-.02,1.26.02,2.01.1,2.01.11,3.27-.59,3.75-.09.06-.2.12-.34.15,0,.13,0,.25.01.38.03.6.06,1.22-.43,1.61-.42.34-1.08.36-2.17.07-.21-.06-.36-.22-.4-.43-.03-.18-.03-.19-.64-.23-.52-.03-1.23-.08-2.01-.49-.11-.06-.19-.15-.24-.26-.15-.33-.32-.35-.37-.36-.25-.03-.59.18-.86.49-.38,1.22-.71,1.6-1.07,1.93-.11.1-.19.17-.26.3.38,1.78.47,5.86.16,7.42-.03.13-.1.24-.2.33-1.56,1.23-3.21,1.34-5.35,1.13-.13-.01-.24-.07-.33-.16-1.45-1.45-1.52-2.33-1.65-4.08-.03-.41-.07-.87-.12-1.41,0-.08-.12-3.61-1.47-6.4-.5-.87-.96-1.74-1.41-2.58-1.13-2.11-2.29-4.28-3.02-4.3h0c-.21,0-.48.25-.77.69.15,1.39.09,2.45-.57,3.14-.57.59-1.5.82-3,.72-.2.04-.4.07-.58.1-1.52.26-2.04.35-1.74,3.39.56,2.01,2.04,3.02,4.77,3.3,4.12.11,6.56,2.07,6.67,5.39-.1,3.9-.15,6.04-3.47,8.36-.07.05-.16.08-.25.1-1.72.22-2.34-.19-3.12-.71-.43-.28-.91-.6-1.71-.91h-.02c-1.99-.1-2.65-.13-2.83,1.5.23.27.43.52.63.76.77.95,1.29,1.58,2.09,1.8,1.12-.07,1.51.35,1.64.71.31.85-.75,1.73-1.57,2.32-.6.46-1.18.91-1.73,1.34-3.61,2.81-5.78,4.52-7.65,4.19-.86-.15-1.59-.72-2.24-1.74-.79-1.22-1.31-1.54-1.77-1.82-.27-.17-.55-.34-.81-.65-.04-.05-.08-.11-.1-.17-.72-1.97-1.5-2.55-2.85-3.4-.61.33-1.67,1.06-1.75,1.81.03.96-.5,1.66-1.41,1.83-.95.18-2.21-.27-2.63-1.2-1.63-1.41-2.59-5.01-.5-7.94.04-.05.09-.1.14-.14l.23-.16c1.39-.94,1.65-.83,3.58.44l.53.35c.98.08,1.71.05,2.07-.35.39-.44.45-1.4.15-2.87-.53-.98-.92-2.46-.31-3.55.3-.54.97-1.19,2.44-1.24.09,0,.18.02.27.06,1.18.59,2.49,1.47,2.14,3.04.03.1.06.18.1.18.29.01,1.06-.58,1.54-2.08.01-.04.03-.09.06-.12l.14-.23c.99-1.57,1.93-3.06-.13-5.33l-.44-.28c-2.25-1.42-5.31-3.36-7-1.7-.16.71-.23,1.63-.29,2.51-.15,2.12-.3,4.31-1.83,4.91-.05.02-.09.03-.14.03-.38.04-.78.05-1.15.07-1.54.05-2.99.1-4.3,1.9-.16.32-.32.66-.49,1.02-1.2,2.54-2.83,6.02-6.36,6.02s-4.47.33-5.29,2.14c.15.5.62.85,1.17,1.24.87.63,2.06,1.49,1.54,3.33,0,.34.01.64.02.93.06,1.7.1,2.84-2.19,4.34-.17.34-.06.7.16,1.4.21.66.48,1.47.48,2.57.14,1.71-.22,3.03-1.04,3.76-.41.36-1.14.75-2.29.54-1.41.02-2.59.06-3.64.1-4.48.17-6.21.23-6.55-3.14-.84-.95-.98-2.88-.41-5.72.05-.36.02-.86-.46-1.05-.45-.18-1.16-.02-1.58.57-1.42,2.24-2.84,4.64-2.93,6.89-.2,2.85-.99,3.12-2.91,3.07-.21,0-.43-.01-.67-.01-1.14.05-2.06,0-2.8-.02-2.48-.1-2.51.02-3.24,3.14-.01.06-.04.12-.07.17-.33.53-.69.9-1.01,1.23-.69.71-1.24,1.28-1.24,3.34-.21,3.92-.65,4.6-2.98,4.6Zm-5.24-23.99c-3.01,2.5-3.04,3.32-3.17,7.23-.01.39-.03.8-.05,1.25,0,.11-.04.21-.1.3-1.32,1.86-.89,2.28-.18,2.97.57.55,1.34,1.31,1.08,2.78-.02.09-.05.17-.11.24-.61.79-.86,1.39-.8,1.88.1.69.84,1.37,2.1,2.3.05.03.09.08.12.12,1.97,2.78,5.32,3.62,6.38,3.82,1.42,0,1.64-.04,1.83-3.53,0-2.47.78-3.29,1.55-4.07.29-.3.56-.58.82-.97.88-3.73,1.48-4.01,4.34-3.9.72.03,1.61.06,2.73.02.27,0,.51,0,.72.01,1.46.04,1.64.04,1.79-2.03.1-2.51,1.6-5.05,3.12-7.44.7-.98,1.92-1.38,2.91-.98.67.27,1.32,1.01,1.13,2.27-.5,2.52-.42,4.29.23,4.87.1.09.17.23.18.36.2,2.46.65,2.51,5.43,2.33,1.07-.04,2.28-.09,3.73-.1.04,0,.08,0,.12.01.59.12,1.07.03,1.4-.27.54-.48.78-1.53.67-2.89,0-.96-.23-1.66-.43-2.27-.27-.82-.52-1.59,0-2.42.04-.07.1-.12.17-.17,1.87-1.2,1.85-1.81,1.79-3.45-.01-.32-.02-.66-.02-1.05,0-.06,0-.11.02-.16.34-1.09-.15-1.51-1.1-2.2-.69-.5-1.48-1.07-1.65-2.11-.02-.1,0-.21.04-.31,1.17-2.69,2.76-2.96,6.37-2.96,2.83,0,4.17-2.86,5.36-5.39.18-.38.35-.74.52-1.08.01-.03.03-.05.05-.08,1.63-2.27,3.52-2.33,5.18-2.39.35-.01.67-.02.99-.05.83-.41.96-2.28,1.07-3.93.07-.99.14-2.02.35-2.85.02-.09.07-.17.13-.23,2.29-2.51,6.03-.15,8.5,1.41l.5.31s.08.06.11.09c2.7,2.92,1.32,5.11.3,6.72l-.1.17c-.57,1.72-1.66,2.86-2.66,2.78-.6-.05-1.02-.51-1.12-1.22-.01-.07,0-.15.01-.22.13-.49.13-1.03-1.41-1.83-.69.05-1.15.27-1.37.67-.37.67-.08,1.79.35,2.55.03.05.05.11.06.16.39,1.92.27,3.17-.4,3.91-.76.85-2.01.81-3.13.7-.09,0-.17-.04-.25-.09l-.65-.43c-.79-.52-1.27-.84-1.52-.88-.15-.02-.32.09-.83.43l-.15.1c-1.79,2.6-.67,5.57.45,6.45.09.07.15.16.18.26.14.41.88.74,1.45.63.38-.07.54-.3.52-.73,0-.02,0-.05,0-.07.12-1.69,2.39-2.77,2.65-2.89.17-.08.36-.06.52.03,1.73,1.08,2.68,1.76,3.53,4.02.14.14.29.23.49.36.5.31,1.19.73,2.12,2.16.48.76.96,1.16,1.5,1.25,1.38.23,3.53-1.44,6.78-3.97.55-.43,1.13-.88,1.75-1.36.74-.53,1.02-.86,1.12-1.02-.11-.02-.28-.04-.54-.02-.06,0-.11,0-.17-.01-1.21-.28-1.9-1.13-2.77-2.2-.23-.28-.48-.59-.76-.92-.1-.11-.14-.26-.13-.41.24-2.92,1.99-2.83,4.01-2.74h.11c.06,0,.11.02.17.04.97.36,1.55.74,2.01,1.05.69.45,1.04.69,2.25.55,2.75-1.97,2.8-3.68,2.89-7.38-.11-3.42-3.13-4.22-5.64-4.29-3.27-.33-5.1-1.64-5.78-4.15,0-.03-.01-.06-.02-.09-.39-3.92.75-4.31,2.65-4.63.2-.03.4-.07.62-.11.05,0,.1-.01.15,0,1.16.08,1.88-.04,2.2-.38.33-.35.41-1.08.25-2.45-.01-.12.01-.24.07-.34.56-.95,1.16-1.41,1.84-1.39,1.37.03,2.41,1.96,3.97,4.88.45.83.91,1.69,1.42,2.58,1.47,3.04,1.59,6.68,1.59,6.84.06.51.09.98.12,1.4.12,1.6.17,2.18,1.2,3.25,1.74.16,3.01.06,4.2-.79.25-1.63.13-5.49-.23-6.94-.03-.12-.02-.24.03-.36.2-.45.42-.65.6-.82.23-.21.46-.43.8-1.55.02-.06.05-.12.09-.17.51-.69,1.24-1.07,1.91-1,.48.05.89.34,1.16.81.51.24.99.27,1.41.29.54.03,1.25.08,1.55.77.73.17.9.07.9.07.05-.08.03-.45.02-.7-.02-.33-.04-.71.02-1.11.02-.17.13-.32.28-.4.15-.08.33-.09.49-.02.01,0,.02,0,.03.01.21-.38.14-1.91.09-2.75-.05-.94-.09-1.82.02-2.42.02-.11.07-.21.15-.29.44-.44.55-.67.57-.76-.12-.09-.63-.29-2.69-.23-.03,0-.07,0-.1,0-2.39-.37-3.56.65-5.26,2.34-1.52,2.27-2.21,2.46-3.43,2.35-.11,0-.23-.02-.36-.03-.64.46-1.2.44-1.58.34-1.47-.39-2.46-2.76-3.27-4.96-.02-.05-.03-.09-.03-.14-.04-.39-.09-.81-.16-1.25-.28-2.04-.63-4.59.5-7.12.39-.97,1.41-1.68,2.52-1.74.94-.05,1.75.38,2.19,1.16,1.5,1.97,2.17,2.03,3.26,1.51,1.11-2.39,2.88-3.25,5.19-3.76,1.49-.79,2.76-1.34,3.88-1.65-.78-3.33-2.88-7.88-5.46-11.79-.67-1.26-3.03-2.97-5.1-4.47-.65-.47-1.28-.93-1.85-1.36-1.83-1.26-2.14-2.91-2.44-6.67-.12-1.79-.57-4.41-.96-6.72-.27-1.6-.53-3.11-.66-4.19,0-.05,0-.09,0-.14-1.06-.16-2.39-.36-3.14-.42-.06,0-.13-.02-.19-.05-1.32-.62-5.68-.62-7.12-.62-2.52,0-3.47,1.33-4.47,2.74-.19.26-.37.52-.56.76-.08.1-.2.18-.33.2-2.1.41-4.68.71-6.27-.5-1.67.2-3.05-.26-4.66-.9-.56.01-1.18.03-1.84.04-4.5.11-8.05.17-9.38-.26-2.64-.34-2.99-.85-2.99-2.66v-.11c-.07-.9-.22-1.76-.4-2.77-.17-.97-.37-2.08-.54-3.51-.1-.81-.39-1.36-.85-1.64-.65-.4-1.5-.2-1.85-.09-1.23.98-1.53,1.95-1.82,2.88-.28.9-.57,1.83-1.68,2.44-.07.04-.15.06-.22.07-2.94.23-3.73-.55-4.71-3.17-1.98-2.42-3.07-3.25-5.48-3.37-4.97,0-5.25.17-5.99.63l-.17.1c-.09.05-.19.08-.29.08-2.45-.07-3.11,1.36-4.7,5.42-.25.64-.53,1.34-.83,2.09-.54,1.99-3.18,5.43-6.16,6.35-.06.02-.13.03-.19.02-2.65-.15-3.57.17-4.23.4-.56.2-1.04.37-2.04.2-.06-.01-.13-.03-.18-.07-1.68-.96-2.14-3.37-2.26-4.46-.65-1.34-2.48-4.32-4.13-4.02-.85,1.74-1.33,3.49-1.8,5.19-.1.38-.21.76-.32,1.13-.05.17-.18.31-.35.37-1.44.5-2.53.43-3.19.39-.09,0-.2-.01-.29-.01.09,4.57-.03,4.86-2.52,7.15l-.59.55s-.03.03-.04.04c-2.25,1.7-3.61,2.73-3.67,3.35-.03.26.18.61.71,1.21,2.7,2.61,3.89,2.26,5.68,1.71.15-.05.31-.09.47-.14,1.3-.73,1.86-.34,2.08-.05.5.67,0,1.88-1.29,3.08-1.26,1.19-1.17,1.34-.68,2.19.09.15.18.31.28.49.18.34.75.78,1.35,1.25,1.34,1.04,3.17,2.47,3.17,4.68,0,.08-.02.16-.05.23l-.25.54c-1.38,3.03-1.81,3.97-4.21,4.41-.68.37-1.23.26-1.58.1-1.31-.61-2.15-2.95-3-8.33,0-.03,0-.06,0-.09,0-2.3-.17-2.92-.32-3.03-.24-.07-1.24.55-2.11,1.1-.51.32-1.1.68-1.77,1.08-1.13.85-1.67,1.47-1.69,1.95-.03.72,1.06,1.65,2.7,3.07.78.68,1.67,1.44,2.68,2.39,5.87,4.08,5.35,5.7,3.74,8.69l-.1.18c0,1,.55,2.23,1.13,3.51.66,1.47,1.34,2.99,1.4,4.52,0,.06,0,.11-.02.17-.38,1.37-.98,2.08-1.79,2.1-1.41.06-2.47-2.18-3.1-4.06-.34-.68-.62-1.37-.87-1.98-.5-1.2-.96-2.34-1.52-2.54-.07-.03-.27-.1-.69.1-2.48,3.14-3.75,6.58-3.23,8.7,1.21.65,2.21,1.25,3.1,1.79,2.46,1.48,3.83,2.3,5.87,2,2.34-1.21,5.09-.63,7.3-.16.42.09.83.17,1.2.24,1.37-.08,2.26-.39,2.59-.89.28-.44.22-1.12-.2-2.2-.02-.05-.03-.1-.04-.16-.22-2.92.23-3.48,1.18-4.38.36-.34.77-.73,1.24-1.43.01-.02.02-.03.03-.04.96-1.16,2.85-2.47,3.92-1.92.31.16.78.6.5,1.73.05,1.91.01,3.4-.02,4.6-.09,3.49-.05,3.76,1.7,4.11.06.01.12.04.18.07.5.3,1.04.57,1.56.82,1.26.62,2.25,1.1,2.44,1.94.09.39-.01.79-.31,1.18-.1.13-.25.21-.42.21-.44.02-.92.04-1.42.07-3.18.17-5.26.22-6.05-.49-.95-.06-1.66-.15-2.19-.21-1.31-.17-1.36-.18-2.06.95v.49c0,1.55.01,2.41-.56,2.94-.48.45-1.22.49-2.26.4-.1,0-.19-.04-.27-.1-1.05-.73-4.38-1.13-7.97-.54-.07.05-.12.09-.15.12.7.66,5.29,1.26,7.79,1.59l.41.05c.11.01.21.06.29.13,1.43,1.25,2.88,2.27,4.16,3.18,2.2,1.56,3.94,2.79,4.5,4.33.06.16.04.33-.05.48-.09.14-.24.24-.4.26-4.74.57-5.5.25-6.88-.6-.5-.31-1.07-.66-2.08-1.05-.02,0-.04-.02-.06-.03-.44-.23-.9-.53-1.38-.84-1.27-.81-2.69-1.73-3.86-1.5-.63,1.28.63,2.3,2.6,3.69.52.37,1.01.72,1.44,1.08.07.06.12.13.15.21.77,1.84.77,3.13-.01,3.82-1.04.93-3.01.35-4.51-.5-.02-.01-.04-.02-.06-.04-1.12-.84-1.94-1.93-2.66-2.89-.63-.84-1.17-1.56-1.76-1.94-.14-.09-.23-.23-.25-.39-.11-.84-.12-1.5-.12-2.08,0-.99-.01-1.78-.53-3.18-.68-.85-1-1.61-1.26-2.23-.42-1-.54-1.28-1.68-1.15-1.98.68-1.38,7.04-1.09,10.11.04.4.07.77.1,1.11.67,3.43,1.54,3.62,3.1,3.87,1.95-.27,5.75.79,5.92.84,2.72.66,2.73,2.28,2.73,3.25,0,.21,0,.52.05.59.02.01.29.16,1.75-.26.12-.11.25-.24.4-.37,1.94-1.81,3.77-3.44,4.99-3.33.13.01.25.07.34.16.48.48,1.07,1.07.98,1.91-.09.88-.92,1.77-2.77,2.97Zm70.23-81.53h0,0Z"/><path class="uuid-547f55e8-1644-4f56-8dd6-9a94ce59e4a9" d="m23.31,348.2c-.41,0-.77-.15-1.03-.45-.06-.07-.1-.14-.12-.23-.05-.21-1.28-5.15,1.44-6.97.03-.02.07-.04.1-.05,4.18-1.67,6.46-2.04,7.4-1.19.3.27.6.8.32,1.76-.02.07-.05.13-.1.19-.91,1.15-5.57,6.88-7.97,6.95-.02,0-.03,0-.05,0Zm-.12-1.12s.07.02.14.02c1.44-.04,5.06-3.93,7.06-6.44.05-.18.08-.43-.03-.53-.2-.18-1.22-.6-6.19,1.38-1.78,1.25-1.15,4.76-.98,5.58Z"/><path class="uuid-547f55e8-1644-4f56-8dd6-9a94ce59e4a9" d="m228.21,379.42c-.66,0-1.11-.79-1.29-1.1-.29-.51-.62-1.03-.93-1.52-1.47-2.34-2.99-4.77-1.36-6.97.01-.02.03-.03.04-.05.87-.94,1.18-1.97,1.01-2.27-.05-.08-.24-.11-.49-.07-1.52,1.07-4.25,2.93-6.53,1.13-2.63-2.27-2.03-5.31-.72-7.22,1.21-1.56,2.42-1.16,3.49-.8.49.16.99.33,1.54.36.07,0,.14.02.2.05,1.81.82,2.77,1.89,3.32,2.56.01-.49,0-1.15-.15-1.73-.66-.28-1.17-.94-1.35-1.74-.26-1.22.28-2.48,1.46-3.37.1-.08.24-.12.36-.11,1.64.09,4.35-1.35,4.49-2.17.13-.59.16-1.35.2-2.09.06-1.56.12-2.79.97-3.08.77-.26,1.56.55,2.23,1.36,1.05,1.13.95,2.48.81,4.19-.07.85-.14,1.81-.09,2.92.17.19.32.34.44.46.3.3.56.55.56.95,0,.47-.31.78-1.15,1.62-.02.02-.04.04-.06.05-.35.26-.76.53-1.16.79-.68.45-1.95,1.28-1.94,1.63,0,.01.04.09.22.21.34.24.57.18,1.22-.06.64-.24,1.45-.54,2.54-.31.08.02.16.05.22.1,1.04.81.31,1.83-.18,2.5-.17.24-.35.48-.48.72.13.34.43.76.72,1.18.61.87,1.24,1.76,1.04,2.69-.1.49-.42.89-.96,1.21-.1.06-.22.09-.34.08-1.14-.12-1.86-.61-2.5-1.04-.52-.35-.93-.63-1.48-.68-1.49.17-1.71.56-2.29,2.76-.16,5-.5,6.6-1.45,6.83-.07.02-.14.03-.21.03Zm-2.71-8.91c-1.15,1.59.04,3.5,1.43,5.7.32.51.65,1.04.95,1.56.13.23.23.36.3.44.44-.88.55-4.51.59-5.75,0-.04,0-.08.02-.12.6-2.29.99-3.4,3.31-3.65.03,0,.06,0,.09,0,.87.06,1.48.47,2.07.87.54.36,1.05.71,1.81.83.25-.19.28-.34.29-.4.1-.45-.42-1.18-.87-1.82-.42-.6-.82-1.17-.95-1.75-.02-.12-.01-.24.04-.34.18-.4.45-.76.68-1.09.46-.63.53-.81.47-.9-.71-.11-1.26.09-1.78.29-.66.25-1.42.53-2.23-.06-.57-.36-.71-.8-.71-1.11-.01-.95,1.12-1.7,2.44-2.57.37-.24.75-.49,1.07-.73.34-.34.63-.63.76-.8-.05-.06-.12-.13-.18-.19-.16-.16-.38-.38-.63-.67-.08-.09-.12-.21-.13-.32-.07-1.27,0-2.32.08-3.26.12-1.55.2-2.58-.54-3.38-.6-.72-.91-.94-1.04-1.01-.16.33-.2,1.39-.23,2.04-.03.79-.07,1.6-.22,2.26-.25,1.48-3.39,3.05-5.41,3.06-1.04.87-.98,1.79-.9,2.15.11.51.45.92.84,1.01.19.04.34.18.4.36.44,1.32.24,3.1.23,3.17,0,.06-.03.12-.05.18-.06.12-.25.5-.67.55-.44.05-.71-.28-1.04-.7-.48-.6-1.28-1.59-2.97-2.38-.66-.05-1.22-.24-1.73-.41-1.03-.34-1.54-.51-2.25.4-1.08,1.58-1.53,3.94.53,5.72,1.53,1.21,3.46.05,5.29-1.25.06-.04.13-.07.2-.09,1.13-.24,1.61.27,1.79.59.53.94-.17,2.49-1.15,3.54Z"/><path class="uuid-547f55e8-1644-4f56-8dd6-9a94ce59e4a9" d="m167.73,381.96c-.82,0-1.76-.49-2.96-2.97-.09-.18-.07-.38.04-.55h0s.5-.97-1.04-3.04c-.42-.31-2.08-1.75-2.28-5.18-.1-.48-.85-4.25.3-7.07.04-1.78.94-5.01,4.16-5.19.15-.03,2.78.03,4.64,2.88.02.03.04.06.05.1.04.09.87,2.24-.85,4.06.05.48.2,1.56.6,2.31.32.39,2.26,2.87,1.81,5.35.29.09.67.15.93-.09.03-.43.17-1.37.89-2.09.62-.62,1.5-.92,2.61-.88.02,0,.04,0,.06,0,.45.06,4.42.68,5.69,2.58.38.57.49,1.19.33,1.85,0,.04,0,.14-.01.29-.05,1.15-.21,4.65-2.91,6.79-.05.04-.1.06-.15.08-.12.04-2.87,1.02-5.61-3.04h0s-.19-.24-.51-.23c-.28.01-.88.23-1.75,1.54-.11.59-.68,2.47-3.66,2.47-.02,0-.05,0-.08,0-.09.01-.19.02-.29.02Zm-1.86-3.22c1.11,2.22,1.74,2.14,2.01,2.11.08,0,.15-.02.21-.02,2.4,0,2.57-1.44,2.59-1.61,0-.09.04-.19.09-.27.9-1.4,1.82-2.12,2.73-2.14h.04c.87,0,1.34.63,1.39.7,2.03,3.01,3.87,2.75,4.25,2.66,2.23-1.84,2.36-4.79,2.41-5.91.01-.25.02-.39.05-.5.09-.35.03-.66-.17-.97-.84-1.25-3.8-1.93-4.9-2.09-.78-.02-1.37.17-1.76.56-.59.59-.58,1.49-.57,1.5,0,.12-.03.24-.1.34-.79,1.13-2.21.73-2.85.36-.23-.13-.33-.4-.25-.65.7-2.2-1.49-4.81-1.51-4.84-.02-.03-.05-.06-.06-.09-.66-1.21-.77-2.99-.77-3.06,0-.16.05-.32.17-.43,1.3-1.22.89-2.71.79-2.99-1.52-2.28-3.57-2.33-3.66-2.33-3.05.17-3.09,4.04-3.09,4.2,0,.07-.02.15-.04.22-1.13,2.63-.28,6.5-.27,6.54,0,.03.01.06.01.09.18,3.28,1.8,4.38,1.87,4.42.05.03.1.08.14.13,1.61,2.12,1.48,3.48,1.28,4.06Z"/><path class="uuid-547f55e8-1644-4f56-8dd6-9a94ce59e4a9" d="m179.12,369.73c-.29,0-.59-.05-.9-.14-.37-.02-2.07-.14-3.23-.5-.33,0-1.3-.1-2.05-.83-.62-.6-.94-1.46-.94-2.56,0-.12.07-1.05.96-1.77.92-.73,2.33-.94,4.21-.6.53.01,3.56.16,4.64,1.65.39.54.49,1.19.28,1.89,0,.04-.41,1.78-1.71,2.52-.39.22-.81.33-1.25.33Zm-4.04-1.74c.06,0,.12,0,.18.03,1.13.38,3.07.48,3.09.48.05,0,.09.01.14.03.52.17.95.14,1.33-.08.88-.5,1.2-1.84,1.2-1.85.12-.41.08-.7-.11-.96-.68-.93-2.99-1.18-3.82-1.2-.03,0-.06,0-.09,0-1.53-.28-2.69-.15-3.34.36-.52.41-.56.93-.56.95,0,.75.2,1.34.6,1.72.56.54,1.36.53,1.37.53,0,0,0,0,.02,0Z"/><path class="uuid-547f55e8-1644-4f56-8dd6-9a94ce59e4a9" d="m209.8,370.77c-.87,0-1.74-.1-2.44-.17-.43-.05-.8-.09-1.02-.09-.1,0-.19-.03-.27-.07-1.45-.83-1.72-1.63-2.62-4.31l-.34-.99c-.47-.73-1.02-1.38-1.55-2.01-.85-1.01-1.72-2.05-2.31-3.43,1.35,5.11.6,6.26-.12,6.68-.06.03-.13.06-.19.07-.99.15-6.51.68-9.14-.42-.65-.11-1.25-.12-1.83-.13-1.96-.05-3.65-.08-5-3.64-.04-.09-.04-.19-.03-.29-.29-.13-1.12-.38-3.43-.47-.1,0-.2-.04-.28-.09-.18-.12-.35-.22-.51-.32-1.51-.92-2.42-1.69-1.95-5.66.04-2,.27-2.82.5-3.62.25-.89.51-1.82.51-4.82,0-.05,0-.09.02-.13.07-.27.08-.45.08-.55-.27.1-1.03.51-2.69,2.27-1.06.99-1.64,2.04-1.58,2.83.04.47.29.86.78,1.19.03.02.06.05.09.08l.16.17c1.37,1.47,1.9,2.19.02,3.95-.03.03-.06.05-.09.07-.65.39-1.22.51-1.75.36-.81-.23-1.23-1.01-1.59-1.69-.17-.31-.33-.61-.49-.8-.04-.05-.08-.1-.1-.16-.43-1.1-.95-1.75-1.54-1.94-.6-.19-1.41.06-2.47.75-.69.62-.76,1.18-.83,1.72-.08.58-.18,1.37-1.27,1.61-1.46.6-1.95,0-2.32-.66-.17-.3-.28-.48-.54-.56-.57-.19-1.33-.34-2.65-.04-.14.03-.3,0-.42-.07-.13-.08-.21-.21-.24-.35-.67-3.36-2.86-8.19-5.57-12.3-.67-1.26-3.03-2.97-5.1-4.47-.65-.47-1.28-.93-1.85-1.36-1.83-1.26-2.14-2.91-2.44-6.67-.12-1.79-.57-4.41-.96-6.72-.27-1.6-.53-3.11-.66-4.19-.02-.16.04-.32.15-.44.12-.12.22-.24.32-.36l.08-.1h0c.88-1.03,1.43-2.05,2.13-3.34.52-.96,1.1-2.04,1.96-3.4,1.36-2.21.31-4.46-.91-7.05l-.24-.51c-.31-.67-.68-1.29-1.07-1.95-1-1.68-2.04-3.42-2.12-6.16.08-1.58.67-3.05,1.43-4.91.29-.72.6-1.47.9-2.3.22-4.79,1.34-6.96,2.89-9.96.02-.05.05-.09.09-.13,2.07-2.17,5.81-4.08,5.97-4.17.03-.01.06-.03.09-.04,5.25-1.62,6.75-4.81,8.34-8.18.16-.33.66-.4.91-.13.18.2,4.46,4.82,7.14,6.45.08.06,4.89,3.46,7.87,4.44,4.96,1.7,7.92,2.9,9.33,4.39,1.79,1.57,2.07,3.48.78,5.66-.64,2.12-1.05,3.66-.56,4.3.3.39,1.06.56,2.26.52,2.43-.07,3.98-.35,5.22-.57,1.05-.19,1.89-.34,2.84-.3,1.66-.03,2.17-.26,2.71-.5.65-.29,1.31-.58,3.48-.58.51.02.73-.04,1.1-.13.9-.23,2.26-.58,8.37-.34,1.02.08,3.57,1.02,5.82,2.15,3.04,1.23,4.85,2,5.79,3.18.96.51,5.35.3,6.82.23l.54-.02.08-.05c.93-.54,1.62-.87,3.9-.78.66-.65,1.28-.81,1.89-.98.47-.12.96-.25,1.56-.62,2.82-1.48,4-2.72,4.38-3.18.08-.1.2-.17.33-.19,1.81-.32,3.26,0,4.21.91.52.12.88.32,1.23.52.64.36,1.3.74,3.32.54,1.03-.94,2.23-1.97,3.39-2.98,1.79-1.54,3.49-3,4.55-4.1.02-.02.05-.04.07-.06,2.21-1.62,4.19-2.75,7.94-1.38,1.4.16,4.43.98,6.36,3.01.86.53,1.28.68,3.77.43.22-.15.44-.33.67-.52,1.16-.93,2.59-2.1,5.54-1.52,1.08.09,3.05-.01,4.35-.08h.15c.16-.01.32.05.43.17.11.12.16.28.14.44-.12.98-.3,1.79-.46,2.51-.28,1.28-.51,2.3-.34,3.79.29,2.8-.07,4.88-1.05,6.04-.5.58-1.15.91-1.89.95-.05,0-.11,0-.16-.02-.85-.21-1.5-.19-1.94.08-.35.21-.58.6-.72,1.17,0,1.11.25,1.42.47,1.68.17.21.38.47.43.92.19,2.12-.05,6.42-.84,8.16-.86,2.58-1.19,4.53-1.46,6.1-.14.83-.27,1.54-.44,2.23-.02.08-.05.15-.1.21-.73.91-1.17,1.57-1.53,2.1-.86,1.28-1.23,1.73-3.03,2.31-.64.39-.61,1.61-.59,2.69,0,.19,0,.37,0,.54.08.78-.01,1.3-.08,1.69-.09.52-.1.58.69,1.22.11.09.19.23.2.38.22,2.26-.37,2.97-2.56,5.61l-.3.36c-.67.75-1.13,1.35-1.54,1.88-1.14,1.48-1.77,2.3-4.1,2.46-1.17.11-1.6-.08-2-.49-.12-.13-.21-.22-.77-.22-.55-.02-.81,0-.93,0-.09.37-.24.8-.89,1.3.03.12.06.24.1.37.22.82.53,1.94-.22,2.61-.61.65-.95.94-1.36.9-.37-.03-.56-.32-.67-.49-.07-.1-.13-.2-.23-.28-.05-.04-.09-.09-.13-.15-.48-.86-1.09-.73-2.26-.11-.02.01-.04.02-.06.03-.06.14-.12.29-.18.45-1.23,3.1-2.46,5.88-3.99,5.88h-.01c-1.07-.01-1.57-1.34-1.73-1.77-.01-.03-.02-.06-.02-.09-.18-.95-.29-1.77-.4-2.5-.17-1.23-.32-2.29-.64-2.47-.09-.05-.34-.1-.97.15-.25.43-.46.84-.66,1.24-.79,1.56-1.48,2.9-3.42,2.71-.2-.02-.37-.15-.45-.33-.18-.41-.6-.76-1.21-.99-.92-.35-2.04-.33-2.87.04-.45.31-.78.65-1.1.98-.91.95-1.77,1.85-4.78,1.61-4.58-.1-5.94-.86-7.48-2.95-.06-.09-.1-.19-.11-.29-.05-.84.43-1.59.9-2.32.65-1,1.03-1.7.77-2.51-.9-.16-1.57.34-2.21.82-.47.35-.92.68-1.43.68-.15,0-.3-.06-.4-.17-.92-.97-1.16-1.88-1.38-2.68-.14-.53-.26-.97-.56-1.37-.66.68-1.44,1.72-1.36,2.82,0,.79-.02,1.49-.04,2.14-.06,1.97-.11,3.4.52,4.4.68.57.97,1.35.79,2.16-.18.8-.78,1.45-1.5,1.62-.53.12-1.04-.03-1.46-.41-1.17.02-1.47-.49-1.72-1.17-.21-.57-.47-1.28-2.12-2.03-.83-.44-1.66-.51-2.09-.18-.37.28-.47.9-.29,1.74.8,1.91.52,3.04.14,3.65-.39.63-1.07,1.02-1.93,1.1-.71.37-1.35.41-1.82.45-.68.05-.69.05-.72.62l.02.2q.12,1.16.89,1.58c.15.08.32.18.52.29.15.08.25.23.27.4.31,2.06.43,3.44-.98,5.83-.79,1.31-.6,1.87.14,2.69.27.36.56.65.83.92.62.62,1.2,1.21,1.09,2.02-.1.7-.74,1.34-2.07,2.06-.73.41-1.7.53-2.68.53Zm-3.3-1.36c.26.01.58.05.98.09,1.27.14,3.39.38,4.46-.23,1.3-.71,1.49-1.11,1.51-1.26.04-.26-.38-.68-.78-1.08-.29-.29-.62-.62-.9-1-1.13-1.26-1.2-2.34-.23-3.95,1.17-1.98,1.14-3.02.88-4.83-.1-.05-.19-.1-.27-.15-1.24-.67-1.3-.87-1.47-2.44l-.03-.24s0-.06,0-.09c.09-1.58,1.05-1.65,1.75-1.7.44-.03.93-.07,1.47-.37.07-.04.15-.06.24-.07.39-.02.91-.15,1.18-.59.34-.56.26-1.51-.24-2.69-.01-.03-.02-.06-.03-.1-.37-1.68.17-2.51.69-2.9.79-.6,2.03-.57,3.25.07,2.04.93,2.42,1.96,2.67,2.64.17.47.18.5.87.44.18-.02.36.06.48.2.25.32.48.27.55.25.3-.07.59-.41.67-.78.06-.29.03-.73-.47-1.12-.05-.04-.09-.08-.12-.13-.87-1.3-.81-2.99-.74-5.12.02-.64.04-1.33.04-2.07-.12-1.67,1.08-3.13,2.11-4.05.21-.19.52-.19.73,0,.83.71,1.04,1.51,1.25,2.28.18.66.35,1.3.91,1.97.17-.09.39-.26.58-.4.75-.56,1.88-1.4,3.43-.93.15.04.27.15.34.29.73,1.53-.09,2.8-.74,3.81-.35.54-.68,1.06-.72,1.51,1.2,1.6,2.23,2.26,6.54,2.36,2.52.2,3.11-.42,3.93-1.28.35-.37.75-.78,1.32-1.16.02-.02.05-.03.07-.04,1.1-.52,2.55-.55,3.77-.09.74.28,1.32.73,1.66,1.27.93-.02,1.3-.68,2.04-2.13.22-.44.48-.94.79-1.46.06-.1.15-.18.26-.23.64-.27,1.45-.53,2.11-.16.8.45.95,1.52,1.19,3.28.1.7.21,1.5.38,2.4.3.79.58,1.01.69,1.01h0c.6,0,1.6-1.74,2.96-5.18.1-.24.18-.46.26-.65.05-.12.14-.22.26-.28l.23-.12c.78-.41,2.59-1.37,3.69.46.11.1.2.21.26.31.09-.09.23-.22.42-.43.01-.02.03-.03.05-.04.25-.22.05-.96-.1-1.51-.08-.3-.16-.58-.19-.84-.03-.21.07-.41.24-.53.62-.42.68-.67.73-.87.2-.83.77-.89,2.03-.84h0c.92,0,1.26.26,1.54.55.12.12.24.24,1.12.16,1.85-.13,2.22-.61,3.32-2.04.4-.52.9-1.17,1.58-1.93l.28-.34c2.06-2.49,2.45-2.96,2.33-4.58-1-.85-1.04-1.3-.9-2.12.06-.34.13-.76.07-1.45,0-.22,0-.4,0-.58-.03-1.34-.06-3.02,1.21-3.7.03-.02.06-.03.1-.04,1.57-.5,1.73-.74,2.5-1.89.34-.5.79-1.18,1.51-2.08.15-.62.26-1.28.39-2.04.28-1.61.62-3.61,1.51-6.29,0-.02.01-.04.02-.06.64-1.38.96-5.4.76-7.61-.01-.11-.06-.17-.2-.34-.38-.47-.72-1.01-.72-2.44,0-.04,0-.08.01-.12.2-.89.61-1.54,1.23-1.92.68-.42,1.58-.5,2.7-.24.41-.04.75-.22,1.04-.56.76-.89,1.05-2.79.8-5.2-.19-1.67.08-2.87.36-4.15.12-.55.25-1.11.35-1.75-1.31.07-3.01.14-4.02.05-.02,0-.04,0-.06,0-2.46-.49-3.58.41-4.66,1.29-.28.22-.56.45-.86.65-.08.05-.16.08-.25.09-2.79.28-3.47.13-4.66-.62-.04-.03-.08-.06-.11-.09-1.62-1.74-4.35-2.58-5.79-2.73-.05,0-.09-.02-.14-.03-3.27-1.22-4.87-.33-6.93,1.18-1.1,1.13-2.79,2.59-4.59,4.13-1.21,1.04-2.46,2.11-3.5,3.07-.09.08-.19.13-.31.14-2.51.29-3.39-.21-4.16-.65-.35-.2-.63-.36-1.05-.43-.12-.02-.23-.08-.31-.17-.8-.86-2.12-.89-3.15-.74-.6.68-1.92,1.89-4.55,3.28-.71.43-1.32.6-1.82.73-.62.16-1.03.27-1.53.84-.11.13-.27.19-.44.18-2.27-.12-2.78.17-3.54.62l-.2.12c-.08.04-.16.07-.25.07l-.67.03c-3.98.19-6.63.17-7.56-.46-.05-.03-.09-.08-.13-.12-.7-.94-2.27-1.64-5.43-2.92-2.33-1.16-4.68-1.99-5.43-2.05-5.93-.23-7.25.11-8.04.31-.4.1-.74.19-1.39.16-1.91,0-2.44.24-3.01.49-.61.27-1.25.56-3.17.59-.87-.03-1.65.11-2.64.29-1.28.23-2.87.51-5.38.59-1.62.05-2.62-.25-3.17-.95-.82-1.07-.4-2.74.4-5.36.01-.04.03-.08.05-.12,1.05-1.75.88-3.1-.57-4.36-1.29-1.35-4.24-2.54-8.92-4.14-3.14-1.02-7.93-4.42-8.13-4.56-2.25-1.37-5.47-4.65-6.79-6.04-1.53,3.2-3.34,6.38-8.62,8.02-.4.21-3.74,1.97-5.58,3.87-1.53,2.96-2.54,4.95-2.74,9.51,0,.06-.01.11-.03.17-.32.88-.65,1.7-.95,2.42-.72,1.76-1.28,3.16-1.35,4.5.07,2.41.99,3.95,1.96,5.58.39.65.79,1.33,1.12,2.05l.24.51c1.24,2.65,2.52,5.38.84,8.11-.84,1.34-1.42,2.4-1.93,3.35-.73,1.35-1.3,2.41-2.26,3.53l-.08.09c-.06.07-.12.14-.18.21.13,1.03.37,2.42.62,3.88.4,2.34.85,4.99.97,6.82.3,3.68.6,4.9,1.99,5.86.59.45,1.22.9,1.85,1.36,2.28,1.65,4.64,3.36,5.4,4.8,2.66,4.03,4.77,8.62,5.59,12.11,1.28-.21,2.11-.02,2.7.18.67.22.96.73,1.15,1.06.23.4.27.47.99.17.03-.01.07-.03.11-.03.36-.07.37-.12.45-.68.08-.61.2-1.53,1.22-2.43.02-.02.04-.03.06-.05,1.38-.92,2.48-1.21,3.44-.91.92.29,1.64,1.11,2.2,2.5.22.27.4.61.57.94.27.52.56,1.05.92,1.15.21.06.49-.02.84-.22,1.11-1.04,1.09-1.06-.12-2.35l-.12-.13c-.73-.52-1.14-1.2-1.2-1.98-.12-1.62,1.29-3.13,1.9-3.7,2.58-2.75,3.5-2.81,4.05-2.51.49.27.63.86.42,1.77,0,3.1-.28,4.09-.55,5.05-.21.76-.42,1.48-.46,3.39-.41,3.53.28,3.95,1.43,4.65.14.08.28.17.42.26,3.5.16,4.17.67,4.36,1.2.06.17.06.34.01.49,1.06,2.64,2.15,2.67,3.91,2.71.61.01,1.3.03,2.06.16.04,0,.09.02.13.04,2.11.92,7.01.58,8.47.38.36-.37.54-2.12-.82-6.7-.18-.45-.78-1.96.05-2.45.28-.17.87-.29,1.71.73.06.08.11.17.12.27.33,2.36,1.48,3.74,2.7,5.19.56.67,1.15,1.37,1.67,2.18.02.04.04.08.06.12l.36,1.05c.85,2.52,1.03,3.05,2.01,3.64Zm-23.39-7.75s0,0-.01.01c0,0,0,0,.01-.01Zm15.49-4.15c.02.09.05.2.09.33-.02-.09-.03-.19-.05-.28-.01-.02-.03-.03-.04-.05Z"/><path class="uuid-547f55e8-1644-4f56-8dd6-9a94ce59e4a9" d="m129.21,257.45c-.08,0-.16-.02-.23-.05-.36-.17-.75-.28-1.16-.4-1.5-.43-3.19-.92-4-4.15,0-.03-.01-.06-.01-.09-.25-2.84-.54-3.2-2.79-5.57-2.18,0-2.55.05-5.17,1.42-.05.03-.1.04-.16.05-3.45.63-5.96,1.5-7.89,2.75-2.18,1.21-4.02,1.12-5.36,1.06-.26-.01-.51-.02-.74-.02s-.43-.14-.51-.35c-.92-2.36-1.42-3.47-3.4-4.51-1.31-.03-2.31-.53-3.19-.97-.81-.41-1.51-.76-2.39-.78-2.97,1-5.04,2.03-6.18,3.08-.19.17-.47.19-.68.05-.05-.03-.25.03-.5.32-.04.04-.08.08-.13.11-.85.5-1.61,1.24-2.41,2.02-1.67,1.62-3.57,3.45-6.76,3.53-6.62-.1-8.24-.74-10.2-4.01-.12-.2-.1-.46.05-.64.79-.92,1.04-2.29.78-2.66-.1-.14-.41-.06-.59,0-.08.03-.17.04-.26.03-1.79-.25-2.15-.04-2.51.16-.2.12-.45.26-.85.34-.04,0-.07.01-.11.01-.63,0-1.09-.31-1.53-.61-.53-.36-1.04-.71-1.96-.61-2.49.14-5.33-.36-5.75-1.79-.24-.83.35-1.66,1.75-2.47,2.56-1.85,3.81-2.01,4.82-2.14.84-.11,1.44-.19,2.74-1.39.21-.33.2-.47.2-.47-.06-.05-.47-.12-.9-.04-1.74.3-2.29-.47-2.92-1.37-.37-.52-.83-1.17-1.68-1.83-1.35-.51-1.73-1.34-1.8-1.95-.16-1.43,1.11-2.82,2.03-3.43.78-.7,1.14-1.35,1.09-1.95-.08-.95-1.19-1.75-2.03-2.28-1.26-.57-2.01-1.4-2.21-2.48-.31-1.67.81-3.5,1.88-4.57.02-.02.04-.03.05-.05.78-.6.68-1.01-.25-3.1-.39-.87-.87-1.95-1.34-3.33-2.46-4.67-2.19-7.71-2.02-9.52.02-.18.03-.34.04-.5-.08-.15-.15-.29-.23-.43-1.26-2.35-1.24-2.97,1.75-5.48.06-.05.14-.09.22-.11,2.51-.63,2.5-1.09,2.43-3.32-.02-.54-.03-1.15-.02-1.86-.08-.39-.25-.86-.55-1.03-.41-.22-1.13.07-1.7.31-.16.06-.3.12-.44.17-.04.01-.07.02-.11.03-1.44.2-2.06.94-2.65,1.66-.51.62-1.05,1.26-2.01,1.38-.04,0-.08,0-.12,0-1.35-.14-1.61-.69-1.84-1.53-.15-.55-.34-1.24-1.24-2.18-.58-.55-.86-.54-.93-.53-.26.05-.54.64-.75,1.07-.09.19-.18.38-.28.56-.34.51-.27.77-.14,1.29.25,1.03.6,2.44-1.93,5.66-.05.07-.12.12-.2.16-.81.37-1.38.19-1.71-.03-1.22-.79-1.31-3.29-1.29-5.57v-.37c0-.6-.12-1.01-.34-1.11-.32-.15-1.03.11-1.67.62-.92.91-2.19,1.25-3.47.95-.69-.16-1.45-.55-1.71-1.06-.28-.33-.41-.66-.39-1,.03-.55.44-.92.8-1.24.27-.24.55-.49.66-.78.52-1.73-1.37-2.45-1.59-2.53-2.5-.98-3.31-3.27-3.11-4.59-.05-.62-.05-3.76,4.78-6.3,1.65-1.62,1.88-3.13,2.1-4.6.14-.94.28-1.83.76-2.67.69-1.99,2.83-4.24,4.49-4.07.48.05,1.33.34,1.52,1.8.17,2.09-.16,2.96-.48,3.8-.26.7-.51,1.36-.43,2.86.4,1.48.83,2.32,1.27,2.48.5.19,1.42-.43,2.48-1.14l.11-.08c1.68-1.47,3.23-2.96,3.28-3.93,0-.18-.02-.47-.36-.86-2.79-1.67-4.34-4.91-3.94-8.29,0-.02,0-.04,0-.06.66-2.96,3.01-3.62,3.72-3.75,1.13-.21,2.15.04,2.54.63.97,1.52,1.34,3.16,1.74,4.91.29,1.28.59,2.6,1.14,3.88.01.03.02.05.03.08.22.85.43,1.21.54,1.35.09-.13.21-.41.3-.86v-.21c-.07-2.32-.1-3.6.69-4.34.63-.59,1.64-.63,2.95-.51.32.02.41-.04.42-.04.04-.15-.21-.83-.37-1.27-.11-.29-.22-.59-.32-.91-1-2.9-1.96-6.63-.85-7.88.25-.28.71-.58,1.49-.41.07.01.13.04.19.08,2.2,1.47,2.92,3.18,3.75,5.16.48,1.16,1.03,2.47,1.97,3.9.05.07.07.15.09.23.52,3.89,1.15,4.34,1.22,4.38,0-.02.26-.17.67-1.09,2.9-5.7,3.63-6.2,6.07-6.2,2.63-.19,3.25.83,4.28,2.53.21.35.45.74.73,1.16.02.03.03.06.05.09.66,1.52,1.54,2.6,2.4,3.64,1.16,1.41,2.25,2.75,2.2,4.73.55,3.3,1.02,4.01,1.18,4.16.06-.04.17-.15.33-.4-.37-3.35.42-4.75,2.41-6.74.08-.08.17-.13.28-.15.5-.1,1.02-.1,1.53-.1,1.14,0,2.21,0,3.12-1.04.02-.03.05-.05.08-.07.8-.62,1.31-1.19,1.59-1.81.1-.21.31-.34.55-.32.8.06,1.63.09,1.85.09,1.33-.26,4.36-1.17,8.77-2.63,1.69-.96,4.77-.88,8.03-.8.92.02,1.85.04,2.74.04,3.19,0,4.82,1.44,6.27,2.71.6.53,1.17,1.03,1.82,1.4.16.09.26.26.28.44.06.97.36,3.39,1.86,4.89.1.1.16.24.16.39,0,.07.09,1.85,3.06,3.28.13.06.22.17.28.3,1.14,2.93,1.87,6.92.51,9.37-2.59,3.96-3.85,7.37-3.98,10.76,1.31,7.6,2.88,12.89,4.31,14.51,2.17,2.27,3.56,2.86,5.65,3.77.77.33,1.65.71,2.68,1.23.05.02.09.05.13.09.25.23.5.44.74.65,2.28,1.92,3.39,3.57-.34,10.24-.87,2.4-.89,5.78-.53,8.15.6.6,1.32.95,2.02,1.29,1.08.52,2.2,1.07,2.58,2.47.01.05.02.09.02.14,0,4.33,1.1,10.4,2.21,12.26.13.22.1.5-.09.68l-.43-.35.39.39c-.3.31-.57.66-.86,1.02-1.19,1.52-2.54,3.24-6.65,3.28l-.06.03c-1.41.7-1.7.85-2.53,2.74-.06.13-.17.24-.3.29-.6.24-.97.39-1.24.51-.66.28-.74.31-1.79.59-.05.01-.1.02-.15.02Zm-4.31-4.83c.66,2.57,1.85,2.92,3.23,3.32.37.11.75.22,1.13.37.83-.23.89-.25,1.47-.49.24-.1.56-.23,1.05-.43.89-1.98,1.38-2.29,2.96-3.08l.18-.09c.08-.04.16-.06.25-.06,3.67,0,4.81-1.45,5.91-2.86.22-.29.45-.58.7-.86-1.23-2.49-2.16-8.48-2.17-12.38-.26-.87-1.02-1.24-1.98-1.7-.8-.39-1.71-.82-2.47-1.65-.07-.08-.12-.18-.14-.28-.42-2.53-.41-6.27.57-8.92,0-.03.02-.05.04-.08,3.59-6.39,2.34-7.44.62-8.9-.24-.2-.48-.41-.72-.63-.97-.48-1.81-.85-2.56-1.17-2.14-.92-3.68-1.59-6.02-4.03-2.17-2.45-3.81-10.53-4.6-15.13,0-.04,0-.07,0-.11.12-3.62,1.44-7.22,4.14-11.34,1.13-2.03.44-5.64-.52-8.2-2.84-1.43-3.37-3.27-3.46-3.93-1.51-1.63-1.91-3.97-2.02-5.17-.64-.4-1.2-.9-1.74-1.38-1.44-1.27-2.8-2.47-5.65-2.44-.87,0-1.76-.02-2.65-.04-3-.08-6.09-.15-7.49.68-.03.02-.07.04-.11.05-3.17,1.06-7.31,2.38-9.03,2.7-.04,0-.07,0-.11,0-.04,0-.78-.02-1.6-.07-.36.64-.91,1.24-1.7,1.85-1.23,1.36-2.71,1.36-3.91,1.37-.41,0-.81,0-1.16.05-1.68,1.7-2.33,2.77-1.95,5.9.01.12-.01.24-.07.35-.2.34-.74,1.26-1.56,1.1-.78-.15-1.41-1.06-2.09-5.14,0-.04,0-.07,0-.11.05-1.6-.83-2.68-1.95-4.05-.85-1.04-1.82-2.23-2.53-3.86-.28-.42-.52-.81-.73-1.16-.98-1.6-1.31-2.14-3.3-2-1.81,0-2.28,0-5.11,5.57-.34.78-.91,1.83-1.83,1.7-.71-.1-1.52-.8-2.13-5.2-.95-1.47-1.51-2.8-2-3.97-.78-1.86-1.4-3.34-3.25-4.61-.24-.03-.31.05-.34.08-.46.51-.3,2.82,1.07,6.81.1.31.2.6.3.87.34.93.64,1.74.21,2.33-.39.52-1.13.48-1.37.47-1.19-.11-1.84-.05-2.12.21-.42.4-.39,1.63-.34,3.5v.27s0,.08,0,.12c-.22,1.19-.71,1.86-1.36,1.88-.93.02-1.37-1.23-1.63-2.21-.58-1.36-.89-2.72-1.19-4.03-.37-1.65-.73-3.21-1.59-4.55-.07-.1-.61-.31-1.44-.14-.68.13-2.31.68-2.81,2.87-.34,2.96,1.03,5.79,3.48,7.22.05.03.09.06.13.1.51.54.74,1.11.7,1.73-.07,1.32-1.4,2.74-3.68,4.73-.02.02-.04.03-.06.04l-.14.1c-1.37.92-2.46,1.64-3.49,1.25-.84-.32-1.43-1.3-1.96-3.28,0-.04-.02-.07-.02-.11-.1-1.78.2-2.59.5-3.37.29-.76.56-1.48.41-3.29-.11-.78-.43-.81-.53-.82-.9-.08-2.76,1.6-3.36,3.38-.01.04-.03.07-.05.11-.4.67-.52,1.43-.65,2.32-.23,1.51-.51,3.39-2.48,5.28-.04.04-.08.07-.13.09-4.6,2.39-4.28,5.18-4.26,5.3,0,.06,0,.13,0,.19-.16.81.38,2.64,2.39,3.43,1.06.37,2.93,1.67,2.25,3.91-.21.58-.63.95-.97,1.26-.15.13-.43.38-.44.47,0,0,0,.08.17.27.05.06.09.12.12.2.06.09.57.44,1.31.52.57.07,1.4-.01,2.12-.74.01-.01.03-.03.05-.04.81-.65,1.98-1.19,2.86-.77.64.31.97,1.02.97,2.11v.38c0,1.12-.03,4.1.79,4.63.05.03.2.13.54,0,2.11-2.71,1.85-3.76,1.64-4.61-.15-.59-.31-1.26.27-2.13.06-.11.14-.29.22-.46.34-.72.73-1.53,1.54-1.69.58-.11,1.2.17,1.91.83,1.11,1.16,1.36,2.07,1.52,2.66.16.58.18.65.82.72.47-.08.77-.41,1.24-.98.65-.79,1.46-1.77,3.29-2.04.11-.04.23-.09.35-.14.75-.31,1.77-.73,2.64-.26.57.31.94.91,1.12,1.84,0,.04.01.08.01.12-.02.71,0,1.32.01,1.86.07,2.45-.03,3.59-3.14,4.39-2.44,2.05-2.37,2.19-1.39,4.03.09.18.2.37.3.57.05.09.07.19.06.29-.01.21-.03.44-.06.68-.17,1.81-.42,4.54,1.92,8.94.01.03.03.05.03.08.46,1.35.94,2.42,1.32,3.28.86,1.94,1.44,3.23-.06,4.4-.93.94-1.76,2.4-1.55,3.56.13.71.67,1.28,1.61,1.69.02.01.05.02.07.04,1.05.65,2.45,1.69,2.58,3.15.08.97-.42,1.94-1.49,2.89-.02.02-.04.04-.07.05-.83.53-1.66,1.62-1.57,2.4.05.46.44.82,1.15,1.07.05.02.1.04.15.08,1.03.78,1.58,1.55,1.99,2.12.58.82.78,1.1,1.84.92.25-.04,1.52-.21,2.02.55.29.45.21,1.03-.25,1.71-.02.04-.05.07-.08.1-1.59,1.49-2.47,1.6-3.4,1.72-.93.12-1.99.26-4.34,1.96-.02.01-.03.02-.05.03-1.1.62-1.31,1.06-1.27,1.21.15.5,2.02,1.14,4.61,1,1.3-.14,2.09.4,2.67.8.37.25.6.4.85.42.18-.04.3-.11.45-.2.58-.34,1.18-.57,3.09-.31,1.06-.32,1.56.21,1.73.46.61.9.19,2.56-.61,3.68,1.53,2.46,2.75,3.06,9.05,3.16,2.74-.06,4.4-1.67,6-3.21.83-.8,1.61-1.56,2.54-2.13.52-.56,1.05-.7,1.47-.62,1.3-1.08,3.45-2.13,6.4-3.12.06-.02.12-.03.17-.03,1.18,0,2.09.46,2.97.9.88.44,1.71.86,2.83.86.09,0,.17.02.25.06,2.32,1.18,2.99,2.49,3.91,4.8.13,0,.27.01.41.02,1.28.06,2.87.14,4.74-.9,2.01-1.3,4.62-2.23,8.18-2.88,2.81-1.47,3.32-1.51,5.85-1.51.15,0,.3.06.4.17l.05.06c2.4,2.53,2.91,3.07,3.2,6.3Zm7.28,3.2h0,0Z"/><path class="uuid-547f55e8-1644-4f56-8dd6-9a94ce59e4a9" d="m230.19,152.12c-.94,0-1.9-.29-2.61-.82-1.24-.79-2.7-.8-4.91-.82-.46,0-.94,0-1.46-.02-.12,0-.24-.05-.33-.12-.01,0-.02-.02-.03-.03,0,0-.02-.01-.02-.02-.1-.08-.22-.18-.35-.29-.83-.71-2.38-2.03-5.62-4.08-2.54-1.5-6.72-2.83-9.52-3.36-.04,0-.08-.02-.11-.03-1.42-.61-2.16-1.21-2.38-1.96-.26-.89.28-1.79.85-2.64.32-.43.31-.64.28-.76-.07-.28-.48-.75-1.97-1.41-7.13-.06-8.78.34-11.05,1.06-.05.02-.11.03-.17.03h-.71c-2.51,0-7.18-.02-9.08.45-.06.02-.13.02-.19.01-2.22-.24-4.11-2.73-5.31-4.8-.48-.49-.86-.94-1.2-1.33-1.03-1.18-1.5-1.72-2.63-1.76-1.44-.19-1.76,1.16-2.56,5.47l-.05.29c-.65,3.95-1.82,4.37-4.01,4.82-.04,0-.07.01-.11.01h-8.03c-1.66,0-3.36-2.11-4.51-3.88-.06-.1-.09-.21-.09-.33.08-1.6-.57-5.48-1.18-7.15-.01-.04-.02-.08-.03-.12-.35-2.82.21-4.87,1.45-7.9,1.14-2.34,1.06-6.01.97-7.53-.42-1.64-1.68-4.45-2.63-5.52-.08-.09-.13-.21-.14-.33-.23-3.21,2.48-4.16,4.15-4.72.57-.38.89-.74.86-.97-.07-.63-1.99-1.35-3.03-1.73-.39-.14-.75-.28-1.05-.41-4.11.39-5.74.05-8.47-.63-5.58-.92-7.26-1.66-8.72-2.95-1.07-.39-1.73-.91-2.01-1.6-.47-1.14.18-2.45.92-3.96.29-.58.58-1.19.85-1.84.51-1.93,3.11-7.74,4.66-11.22l.53-1.18c.6-2.77-.18-6.34-.6-8.27-.04-.21-.09-.39-.12-.56-.35-.28-.68-.53-1-.76-1.39-1.03-2.49-1.84-2.95-4.22,0-.03,0-.05,0-.08-.18-3.81-.38-3.82-.9-3.86-5.16.11-6.87-.07-7.57-.79-.37-.38-.38-.83-.37-1.14,0-4.5-.32-7-.59-8.31-.87-2.22-2.4-2.45-4.18-2.7-.42-.06-.86-.12-1.28-.22-.06-.01-.12-.04-.18-.07-1.55-1-3.53-.54-5.45-.11-1.03.24-2.01.46-2.92.46-1.74.18-2.7.04-3.32-.49-.66-.57-.74-1.45-.77-2.47,0-.04,0-.07,0-.11.43-2.61-.73-4.69-.74-4.71-.02-.04-.04-.09-.05-.13-.07-.27-.26-.49-.56-.67-1.54-.89-5.81-.5-11.43,1.03-.24.07-.5-.04-.62-.26-.13-.22-.09-.49.09-.67,2.34-2.34,7.51-6.95,10.29-7.66,3.66-1.13,5.89-1.82,13.53-2.78,4.03-1.02,7.07-1.69,12.38-1.69,2.62-.19,5.71-.16,8.44-.12,2.82.03,5.48.07,6.54-.2,1.87-.42,10.03-1.7,13.04.2.06.04.11.09.15.15.86,1.2,1.88,1.16,4.11,1.05.7-.03,1.48-.07,2.39-.07.03,0,.07,0,.1,0,1.37.25,2.72.57,4.04.87,2.09.48,4.06.94,5.31.94,2.01,0,7.26-.38,12.72-3.89,3.97-2.05,6.15-3.77,8.63-8.6.61-1.52,1.22-3.2,1.8-4.83,1.84-5.08,3.03-8.23,4.31-8.92.81-.5,1.83-1.06,2.99-1.34.22-.05.45.04.58.22.11.16.21.3.29.42.8,1.13.82,1.21,1.85,5.43l.13.52c.93,1.83,2.63,3.5,4.13,4.98.24.23.47.46.7.69.07.07.12.17.15.27.53,2.32.21,3.4-.97,5.11.25,1.15,1.34,3.33,2.41,5.44,1.09,2.17,2.13,4.23,2.49,5.58.52,1.16.85,2.17,1.2,3.23.82,2.47,1.83,5.54,5.84,12.56.8,1.22,1.52,1.93,2.2,2.61,1.26,1.26,2.46,2.44,4.1,6.46.76,2.33,1.28,4.05,1.7,5.43.71,2.37,1.15,3.81,2.01,5.72.77.94,1.47,1.62,2.2,2.35,1.38,1.36,2.8,2.77,4.68,5.85,1.71,3,5.16,6.02,10.85,9.53,1.51,1.13,2.93,1.93,4.18,2.63,2.55,1.43,4.56,2.56,5.08,5.22.25,1.14.39,2.19.52,3.12.36,2.55.59,4.24,2.44,5.89.04.03.07.07.09.11.49.75,1.08,1.54,1.7,2.38,2.03,2.74,4.33,5.84,4.75,9.43,1.41,3.92,2.81,6.23,4.58,9.14.61,1.01,1.24,2.05,1.94,3.25,2.65,5.3,5.44,11.22,5.23,14.88-.01.25-.2.46-.44.51-3.5.7-6.5,2.8-9.15,4.66-.32.22-.63.44-.94.65-1.02.57-1.54,1.47-2.09,2.42-.37.64-.75,1.3-1.28,1.83-.08.08-.19.14-.31.16-5.12.71-6.06-.15-7.56-2l-.23-.29c-.97-1.02-3.4-1.08-4.46-.08-.11.1-.25.16-.39.15-7.65-.2-8.26-.17-9.43,1.82-.02.03-.03.05-.05.08-1.62,1.92-3.81,1.67-5.56,1.46-.48-.06-.93-.11-1.35-.12-.04,0-.07,0-.1-.01-2.2-.5-3.63-.21-5.42,1.14-.51.66-1.25,1.08-2.17,1.22-.22.03-.44.05-.67.05Zm-7.65-2.74s.1,0,.14,0c2.31.02,3.99.03,5.52,1.01.68.5,1.64.72,2.48.59.45-.07,1.08-.27,1.49-.85.03-.04.07-.08.11-.11,2.06-1.56,3.84-1.95,6.34-1.39.45.02.93.07,1.39.13,1.71.2,3.33.39,4.56-1.05,1.5-2.53,2.71-2.52,10.17-2.33.72-.58,1.75-.89,2.87-.86,1.22.03,2.31.46,2.99,1.18l.26.32c1.23,1.53,1.8,2.24,6.35,1.63.37-.41.66-.93.98-1.47.57-.99,1.22-2.12,2.46-2.81.26-.18.57-.4.88-.62,2.5-1.75,5.59-3.91,9.13-4.74-.05-3.75-3.32-10.3-5.11-13.88-.67-1.17-1.3-2.2-1.91-3.2-1.81-2.99-3.24-5.34-4.7-9.4-.01-.04-.02-.08-.03-.13-.37-3.33-2.59-6.32-4.55-8.96-.61-.83-1.19-1.61-1.7-2.37-2.1-1.9-2.39-3.94-2.75-6.51-.13-.91-.27-1.93-.51-3.05-.42-2.17-2.06-3.09-4.54-4.48-1.28-.72-2.73-1.53-4.26-2.68-5.81-3.58-9.38-6.73-11.18-9.88-1.8-2.96-3.11-4.26-4.5-5.63-.73-.73-1.5-1.48-2.33-2.49-.03-.04-.06-.08-.08-.12-.91-2.01-1.38-3.56-2.09-5.92-.42-1.38-.93-3.09-1.68-5.37-1.55-3.77-2.66-4.88-3.85-6.06-.73-.72-1.48-1.47-2.36-2.82-4.08-7.15-5.11-10.28-5.94-12.79-.36-1.1-.68-2.04-1.18-3.17-.01-.03-.02-.06-.03-.09-.32-1.24-1.39-3.36-2.42-5.41-1.22-2.43-2.38-4.73-2.55-5.99-.02-.14.02-.28.1-.39,1.12-1.58,1.38-2.32.96-4.26-.19-.19-.38-.38-.58-.57-1.58-1.55-3.36-3.31-4.37-5.33-.02-.04-.03-.08-.04-.12l-.14-.58q-1.01-4.1-1.68-5.06s-.05-.07-.08-.11c-.87.27-1.66.71-2.33,1.12-1,.54-2.5,4.68-3.82,8.34-.59,1.64-1.21,3.34-1.83,4.89,0,.02-.01.03-.02.05-2.63,5.11-4.92,6.93-9.07,9.07-5.66,3.65-11.17,4.04-13.27,4.04-1.38,0-3.31-.45-5.56-.97-1.28-.3-2.61-.61-3.94-.85-.86,0-1.62.04-2.29.07-2.27.11-3.79.18-4.99-1.42-2.37-1.38-9.14-.68-12.11-.01-1.19.3-3.67.27-6.8.23-2.7-.03-5.77-.07-8.39.12-5.24,0-8.1.63-12.18,1.67-.02,0-.04.01-.07.01-7.57.95-9.76,1.62-13.4,2.75-1.99.51-5.62,3.45-8.31,5.94,3.53-.84,8.18-1.59,10.23-.4.54.31.9.74,1.06,1.27.21.4,1.28,2.58.85,5.32.03.86.11,1.37.39,1.62.34.3,1.16.37,2.5.23.02,0,.04,0,.06,0,.8,0,1.73-.21,2.71-.44,2.01-.46,4.28-.98,6.2.2.35.08.72.13,1.11.18,1.77.26,3.97.58,5.06,3.44.01.03.02.06.02.08.41,1.96.62,4.86.62,8.61-.01.27.03.32.06.34.49.51,3.56.52,6.8.45,1.59.11,1.79.96,1.98,4.87.39,1.93,1.19,2.53,2.52,3.51.36.27.77.57,1.2.92.1.08.16.19.19.32.04.21.1.46.16.74.44,2.02,1.26,5.79.58,8.8,0,.04-.02.07-.03.1l-.55,1.24c-1.45,3.25-4.15,9.29-4.61,11.09,0,.02-.01.05-.02.07-.29.7-.61,1.36-.9,1.94-.63,1.28-1.17,2.38-.89,3.06.17.4.64.73,1.46,1.02.07.02.13.06.19.11,1.32,1.19,2.83,1.87,8.29,2.77,2.76.69,4.24.99,8.29.6.1-.01.2,0,.28.05.29.13.69.28,1.12.44,1.69.63,3.6,1.34,3.74,2.65.08.72-.38,1.39-1.42,2.06-.04.03-.08.05-.13.06-2.01.67-3.55,1.35-3.48,3.44,1.15,1.41,2.37,4.32,2.76,5.88,0,.03.01.07.02.1.12,1.96.14,5.62-1.07,8.1-1.17,2.86-1.68,4.7-1.37,7.25.64,1.77,1.27,5.54,1.24,7.34,1.31,2,2.64,3.23,3.49,3.23h7.97c1.79-.37,2.54-.56,3.09-3.92l.05-.3c.8-4.32,1.23-6.7,3.73-6.37,1.55.05,2.27.88,3.36,2.13.34.39.73.84,1.21,1.33.03.03.06.07.08.11,1.48,2.58,3.05,4.1,4.42,4.3,2.08-.48,6.73-.47,9.24-.46h.62c2.28-.71,4.13-1.15,11.42-1.08.07,0,.15.02.21.05,1.65.72,2.48,1.39,2.7,2.18.14.54,0,1.09-.45,1.69-.49.72-.81,1.3-.69,1.69.11.38.68.79,1.7,1.23,2.9.56,7.19,1.94,9.83,3.5,3.31,2.09,4.89,3.44,5.75,4.17.17-.14.34-.27.5-.39.25-.18.59-.13.77.12.07.1.11.21.11.32,0,.06,0,.11-.02.17ZM196.13,15.33h0,0Z"/><path class="uuid-547f55e8-1644-4f56-8dd6-9a94ce59e4a9" d="m159.44,253.34c-.16,0-.31,0-.47,0-.17,0-.32-.09-.42-.22-.17-.23-.34-.44-.53-.65-2.49-2.78-5.39-2.32-5.51-2.3-.03,0-.06,0-.1,0-2.98,0-8.06-.73-10.11-1.04-.2-.03-.37-.17-.44-.37-.02-.05-.02-.09-.03-.14-1.27-2.38-2.24-8.56-2.25-12.54-.26-.87-1.02-1.24-1.98-1.7-.8-.39-1.71-.82-2.47-1.65-.07-.08-.12-.18-.14-.28-.42-2.53-.41-6.27.57-8.92,0-.03.02-.05.04-.08,3.59-6.39,2.34-7.44.62-8.9-.24-.2-.48-.41-.72-.63-.97-.48-1.81-.85-2.56-1.17-2.14-.92-3.68-1.59-6.02-4.03-2.17-2.45-3.81-10.53-4.6-15.13,0-.04,0-.07,0-.11.12-3.62,1.44-7.22,4.14-11.34,1.13-2.03.44-5.64-.52-8.2-2.84-1.43-3.37-3.27-3.46-3.93-1.65-1.77-1.98-4.4-2.04-5.46-.01-.18.07-.35.21-.46.35-2.8,4.88-6.16,9.92-9.65.39-.27.76-.53,1.1-.77,3.32-2.35,4.25-2.25,5.37-.73.06.08.11.15.17.24.04.05.07.11.09.17.19.61.43.99.66,1.01.15.02,1-.05,2.86-3.22,0-.01.01-.02.02-.03,1.1-1.59,4.18-5.61,6.89-9.15,2.01-2.62,3.91-5.11,4.62-6.1v-.03c.01-.24.18-.44.41-.51.23-.06.48.03.61.23,1.34,2.08,2.71,3.37,3.58,3.37h7.97c1.79-.37,2.54-.56,3.09-3.92l.05-.3c.8-4.32,1.23-6.7,3.73-6.37,1.55.05,2.27.88,3.36,2.13.34.39.73.84,1.21,1.33.03.03.06.07.08.11,1.48,2.58,3.05,4.1,4.42,4.3,2.08-.48,6.73-.47,9.24-.46h.62c2.28-.71,4.13-1.15,11.42-1.08.07,0,.15.02.21.05,1.65.72,2.48,1.39,2.7,2.18.14.54,0,1.09-.45,1.69-.49.72-.81,1.3-.69,1.69.11.38.68.79,1.7,1.23,2.9.56,7.19,1.94,9.83,3.5,3.32,2.1,4.91,3.45,5.76,4.18.13.11.24.2.33.28.13.1.2.26.2.42s-.07.32-.2.42c-2.25,1.85-4.83,4.76-6.9,7.1l-.48.54c-1.1,1.41-1.95,2.73-2.7,3.9-.67,1.05-1.31,2.03-2.03,2.95-2.53,3.23-2.46,4.52-2.27,7.98.02.36.04.75.06,1.16.1,2.42-1.02,3.26-2.56,4.43-.28.21-.57.43-.89.68-.06.05-.12.08-.19.1-1.03.29-1.42.74-2.06,1.49-.13.15-.27.31-.42.47-.09.1-.22.17-.36.18-1.26.1-2.12.11-3.38-.69-.15-.09-.24-.25-.25-.43-.05-.88-.32-1.51-.78-1.87-.64-.5-1.49-.36-1.5-.36-.03,0-.07,0-.1,0-1.28,0-1.63.16-2.13.39-.81.37-1.82.84-6.04,1.02-2.1-.1-3.91-.05-5.22,1.53.15,1.53-.17,2.98-.48,4.39-.17.78-.35,1.58-.45,2.4-.01.09-.04.17-.1.25-.47.67-1.13,1.07-1.95,1.21-1.67.27-3.67-.66-4.95-1.58-1,0-1.73.3-2.17.89-.65.86-.71,2.38-.15,4.17.01.04.02.07.02.11.43,4.26-.61,5.43-3.74,6.52-1.35.91-2.22,1.86-.62,4.73,3.14,3.08,2.74,6.27,1.82,9.25-.09.93-.15,1.89-.2,2.83-.12,2.12-.22,3.96-.71,5.1-.75,8.71.45,9.2,3.99,10.63l.06.02c4.83.66,5.51,4.03,6.38,8.29l.09.43c.31,2.25.19,3.37-.42,4.03-.65.71-1.68.66-2.99.6-.19,0-.39-.02-.59-.02-2.96.08-4.67,2.58-6.48,5.22-.21.31-.42.61-.63.92-.05.07-.11.12-.18.16-2.03,1.18-4.89,1.9-7.42,1.9Zm-.17-1.1c2.33.05,5.02-.62,6.93-1.69.19-.27.37-.54.56-.81,1.89-2.75,3.84-5.6,7.4-5.7.24,0,.44.02.64.03,1.06.05,1.83.08,2.13-.25.33-.36.38-1.38.14-3.1l-.08-.4c-.84-4.15-1.4-6.89-5.51-7.43-.05,0-.09-.02-.14-.04l-.12-.05c-4.09-1.66-5.46-2.7-4.67-11.84,0-.06.02-.13.05-.19.44-.94.54-2.81.65-4.79.05-.96.11-1.96.21-2.93,0-.04.01-.07.02-.11.99-3.19,1.07-5.68-1.58-8.24-.04-.04-.07-.08-.1-.12-1.93-3.4-1-4.97.98-6.3.04-.03.08-.05.13-.06,2.63-.91,3.45-1.52,3.08-5.34-.66-2.14-.54-3.95.34-5.11.48-.63,1.44-1.38,3.25-1.32.11,0,.22.04.31.11,1.15.86,2.97,1.69,4.27,1.48.49-.08.86-.29,1.15-.65.11-.82.28-1.6.45-2.36.32-1.45.63-2.82.44-4.24-.02-.14.02-.29.11-.4,1.77-2.37,4.46-2.23,6.24-2.14,3.96-.17,4.89-.61,5.58-.92.57-.26,1.06-.49,2.55-.5.27-.04,1.4-.14,2.32.58.66.52,1.06,1.32,1.18,2.38.76.44,1.29.47,2.25.4.09-.1.17-.2.25-.29.65-.75,1.21-1.41,2.48-1.8.29-.23.57-.44.83-.64,1.46-1.1,2.19-1.66,2.12-3.5-.02-.41-.04-.79-.06-1.15-.19-3.55-.28-5.17,2.5-8.72.69-.88,1.31-1.84,1.97-2.87.76-1.19,1.63-2.53,2.78-4.01l.5-.57c1.95-2.2,4.34-4.89,6.52-6.79-.86-.74-2.41-2.02-5.47-3.95-2.54-1.5-6.72-2.83-9.52-3.36-.04,0-.08-.02-.11-.03-1.42-.61-2.16-1.21-2.38-1.96-.26-.89.28-1.79.85-2.64.32-.43.31-.64.28-.76-.07-.28-.48-.75-1.97-1.41-7.14-.07-8.78.34-11.05,1.06-.05.02-.11.03-.17.03h-.71c-2.51,0-7.18-.02-9.08.45-.06.02-.13.02-.19.01-2.22-.24-4.11-2.73-5.31-4.8-.48-.49-.86-.94-1.2-1.33-1.03-1.18-1.5-1.72-2.63-1.76-1.44-.19-1.76,1.16-2.56,5.47l-.05.29c-.65,3.95-1.82,4.37-4.01,4.82-.04,0-.07.01-.11.01h-8.03c-1.42,0-2.89-1.56-4-3.12-.85,1.16-2.49,3.3-4.34,5.72-2.7,3.52-5.75,7.51-6.85,9.09-1.58,2.68-2.83,3.86-3.93,3.74-.69-.08-1.21-.65-1.55-1.69-.04-.06-.09-.12-.13-.17-.6-.82-.84-1.15-3.84.97-.35.24-.72.5-1.11.77-3.64,2.52-9.73,6.74-9.46,9.24.02.16-.04.32-.15.44.13,1.15.54,3.08,1.81,4.36.1.1.16.24.16.39,0,.07.09,1.85,3.06,3.28.13.06.22.17.28.3,1.14,2.93,1.87,6.92.51,9.37-2.59,3.96-3.85,7.37-3.98,10.76,1.31,7.6,2.88,12.89,4.31,14.51,2.17,2.27,3.56,2.86,5.65,3.77.77.33,1.65.71,2.68,1.23.05.02.09.05.13.09.25.23.5.44.74.65,2.28,1.92,3.39,3.57-.34,10.24-.87,2.4-.89,5.78-.53,8.15.6.6,1.32.95,2.02,1.29,1.08.52,2.2,1.07,2.58,2.47.01.05.02.09.02.14,0,4.2,1.04,10.06,2.12,12.1,2.18.33,6.8.97,9.56.98.47-.07,3.7-.41,6.45,2.64.01.01.03.03.04.04.14.16.28.33.41.5Z"/><path class="uuid-547f55e8-1644-4f56-8dd6-9a94ce59e4a9" d="m84.09,165.3c-2.2,0-2.89-.25-5.69-4.5-.01-.02-.02-.04-.03-.06-1.09-2.17-1.34-3.55-.84-4.46.35-.64,1.04-.99,2.09-1.09.03,0,.05,0,.08,0,4.81.21,5.53.01,5.92-1.6.05-.26.04-.47-.03-.55-.26-.3-1.68-.21-3.32-.1h0c-.15.09-.23.17-.31.25-.47.47-.78.57-3.45.57-.02.02-.03.04-.05.07-.5.67-.93.83-3.76.74-.11,0-.22-.04-.31-.11-1.39-1.01-1.87-3.81-.4-6.4.35-1.86,2.02-2.51,3.62-3.14.83-.32,1.68-.66,2.34-1.15.08-.06.17-.09.26-.11,1.05-.13,1.57-.63,1.56-.87,0-.15-.42-.47-1.59-.47-.05,0-.1,0-.14-.02-.41-.11-.67-.22-.87-.32-.46-.21-.66-.3-3.22.37-1.64,2.06-3.63,3.59-5.09,4.7-.44.34-.84.64-1.14.9-.08.07-.19.11-.3.13h-.06c-.88.1-1.57.18-2.09-.31-.57-.54-.71-1.54-.59-4.11.1-1.71.49-2.11.98-2.46.25-.18.54-.38.63-2.3-.13-3.52-.01-4.65.55-5.21.41-.41.92-.4,1.47-.38.15,0,.33-.02.5.03.56.15.86.29,1.09.39.34.16.46.22,1.65.1.15-.02.3.03.42.13.21.19.35.36.45.49.19.24.29.38,1.99.23.19-2.9,2.07-4.53,5.46-4.7.02,0,.04,0,.06,0,.81.05,1.14,0,1.26-.04-.02-.1-.07-.26-.11-.38-.11-.34-.25-.76-.23-1.23-.18-.92-.47-1.48-.9-1.73-.48-.27-1.21-.22-2.25.17-1.42.84-3.02,1.6-4.12,1-.61-.33-.95-1.03-1.02-2.06-1.06-2.01-1.83-4.7-.88-6.38.52-.93,1.47-1.44,2.81-1.5,1.42.04,1.67-.26,1.71-.32.18-.29-.3-1.18-.62-1.77l-.11-.2c-.76-.97-1.69-1.54-2.63-1.63-.59-.05-1.14.1-1.5.42-.28.31-.59.66-.9,1.02-1.75,1.99-3.42,3.89-5.37,3.78-.04,0-.08,0-.11-.02-3.04-.79-4.55-2.69-4.25-5.35,0-.07.03-.15.07-.21.84-1.46,1.55-1.63,2.31-1.81.46-.11.94-.22,1.59-.69,1.25-.95,1.63-2.11-.33-4.9-.02-.03-.04-.06-.05-.09-.35-.77-.58-1.41-.79-1.98-.67-1.87-1.12-3.11-5.19-6.59-.47-.25-2.56-1.63-2.87-6.31-.45-1.12-.88-2-1.23-2.71-.97-1.97-1.55-3.16.58-4.46.02-.01.04-.02.06-.03,4.52-2.08,7.71-2.28,8.52-.54.4.89.76,1.95,1.14,3.08.57,1.71,1.17,3.47,1.92,4.59l.59.57c2.65,2.58,4.41,4.29,7.27,4.19,1.42.06,2.03-.24,2.09-.36h0s-.08-.42-1.49-1.22c-3.77-1.3-6.11-3.47-7.35-6.82-.98-1.39-1.41-3.29-1.82-5.12-.44-1.97-.86-3.84-1.88-4.46-.09,0-.19-.01-.27-.06-.15-.07-.26-.21-.29-.38-.72-3.35-1.67-9.56.11-13.48.04-.08.09-.15.16-.2,1.51-1.21,3.21-2.1,4.71-2.88,1.79-.93,3.33-1.74,4.14-2.82.05-.07.12-.13.2-.17,2.71-1.29,9.26-4.72,11.04-6.5.21-.21.41-.4.61-.6,1.19-1.17,2.13-2.09,2.77-3.58.04-.09.11-.17.19-.23,0,0,.05-.04.12-.09t0,0c.37-.29,1.62-1.52,2.37-5.07,0-.02.01-.05.02-.07.18-.51.34-.97.48-1.37.65-1.87.95-2.72,1.73-3.5.07-.07.18-.14.27-.17,3.52-.96,9.79-2.35,12.27-.92.54.31.9.74,1.06,1.27.21.4,1.28,2.58.85,5.32.03.86.11,1.37.39,1.62.34.3,1.16.37,2.5.23.02,0,.04,0,.06,0,.8,0,1.73-.21,2.71-.44,2.01-.46,4.28-.98,6.2.2.35.08.72.13,1.11.18,1.77.26,3.97.58,5.06,3.44.01.03.02.06.02.08.41,1.96.62,4.86.62,8.61-.01.27.03.32.06.34.49.51,3.56.52,6.8.45,1.59.11,1.79.96,1.98,4.87.39,1.93,1.19,2.53,2.52,3.51.36.27.77.57,1.2.92.1.08.16.19.19.32.04.21.1.46.16.74.44,2.02,1.26,5.79.58,8.8,0,.04-.02.07-.03.1l-.55,1.24c-1.45,3.25-4.15,9.29-4.61,11.09,0,.02-.01.05-.02.07-.29.7-.61,1.36-.9,1.94-.63,1.28-1.17,2.38-.89,3.06.17.4.64.73,1.46,1.02.07.02.13.06.19.11,1.32,1.19,2.83,1.87,8.29,2.77,2.76.69,4.24.99,8.29.6.1-.01.2,0,.28.05.29.13.69.28,1.12.44,1.69.63,3.6,1.34,3.74,2.65.08.72-.38,1.39-1.42,2.06-.04.03-.08.05-.13.06-2.01.67-3.55,1.35-3.48,3.44,1.15,1.41,2.37,4.32,2.76,5.88,0,.03.01.07.02.1.12,1.96.14,5.62-1.07,8.1-1.17,2.86-1.68,4.7-1.37,7.25.66,1.84,1.31,5.81,1.23,7.53v.06c0,.05,0,.11,0,.15,0,.1-.04.19-.1.27-.63.9-2.54,3.39-4.74,6.27-2.71,3.53-5.77,7.53-6.86,9.11-1.56,2.66-2.81,3.85-3.92,3.72-.69-.08-1.21-.65-1.55-1.69-.04-.06-.09-.12-.13-.17-.6-.82-.85-1.15-3.84.97-.35.24-.72.5-1.11.77-3.64,2.52-9.73,6.74-9.46,9.24.02.2-.07.4-.24.52-.17.11-.39.13-.57.03-.06-.03-.11-.07-.16-.1l-.05-.03c-.74-.43-1.38-.99-2-1.53-1.44-1.27-2.8-2.47-5.65-2.44-.87,0-1.76-.02-2.65-.04-3-.08-6.09-.15-7.49.68-.03.02-.07.04-.11.05-3.17,1.06-7.31,2.38-9.03,2.7-.04,0-.07.01-.11,0-.04,0-1.01-.02-1.97-.1-.18-.01-.34-.12-.43-.27-.09-.15-.1-.34-.03-.51.22-.48.29-.95.37-1.49.07-.45.14-.95.32-1.5-.06-.12-.13-.2-.2-.22-.41-.1-1.41.81-1.89,1.25l-.19.17c-.79.65-1.29,1.24-1.73,1.76-.87,1.02-1.55,1.82-3.39,1.82h-.29s-.1,0-.14,0Zm-4.76-5.08c2.63,3.98,2.98,3.98,4.9,3.98h.29c1.33,0,1.74-.48,2.55-1.44.45-.53,1.01-1.18,1.85-1.88l.17-.16c.86-.78,1.92-1.75,2.9-1.5.47.12.82.49,1.03,1.09.04.12.04.25,0,.37-.19.52-.26.99-.33,1.49-.05.35-.1.7-.2,1.06.53.03.98.04,1.13.05,1.33-.26,4.36-1.17,8.77-2.63,1.69-.96,4.77-.88,8.03-.8.92.02,1.85.04,2.74.04,3.19,0,4.82,1.44,6.27,2.71.39.35.77.68,1.17.98.05-.04.1-.07.15-.09.83-2.68,5.09-5.83,9.79-9.09.39-.27.76-.53,1.1-.77,3.32-2.35,4.25-2.25,5.37-.73.06.08.11.15.17.24.04.05.07.11.09.17.19.61.43.99.66,1.01.15.02,1-.05,2.86-3.22,1.12-1.63,4.2-5.64,6.91-9.18,1.96-2.56,3.82-4.99,4.57-6.02-.19-.3-.29-.48-.29-.48-.05-.09-.07-.18-.07-.27,0-.19.1-.38.28-.48.03-.02.07-.03.1-.05-.14-1.87-.65-4.63-1.15-5.98-.01-.04-.02-.08-.03-.12-.35-2.82.21-4.87,1.45-7.9,1.14-2.34,1.06-6.01.97-7.53-.42-1.64-1.68-4.45-2.63-5.52-.08-.09-.13-.21-.14-.33-.23-3.21,2.48-4.16,4.15-4.72.57-.38.89-.74.86-.97-.07-.63-1.99-1.35-3.03-1.73-.39-.14-.75-.28-1.05-.41-4.11.39-5.74.05-8.47-.63-5.58-.92-7.26-1.66-8.72-2.95-1.07-.39-1.73-.91-2.01-1.6-.47-1.14.18-2.45.92-3.96.29-.58.58-1.19.85-1.84.51-1.93,3.11-7.74,4.66-11.22l.53-1.18c.6-2.77-.18-6.34-.6-8.27-.04-.21-.09-.39-.12-.56-.35-.28-.68-.53-1-.76-1.39-1.03-2.49-1.84-2.95-4.22,0-.03,0-.05,0-.08-.18-3.81-.38-3.82-.9-3.86-5.16.11-6.87-.07-7.57-.79-.37-.38-.38-.83-.37-1.14,0-4.5-.32-7-.59-8.31-.87-2.22-2.4-2.45-4.18-2.7-.42-.06-.86-.12-1.28-.22-.06-.01-.12-.04-.18-.07-1.55-1-3.53-.54-5.45-.11-1.03.24-2.01.46-2.93.46-1.74.18-2.7.04-3.31-.49-.66-.57-.74-1.45-.77-2.47,0-.04,0-.07,0-.11.43-2.61-.73-4.69-.74-4.71-.02-.04-.04-.09-.05-.13-.07-.27-.26-.49-.56-.67-1.52-.88-5.74-.51-11.28.99-.56.61-.82,1.35-1.39,3.01-.14.4-.29.84-.47,1.35-.64,2.98-1.64,4.5-2.3,5.24.15.15.31.29.46.43.12.11.19.26.19.41,0,.13-.05.26-.14.36-.2.23-.55.25-.78.05-.14-.12-.28-.25-.42-.39-.71,1.39-1.67,2.33-2.76,3.4-.19.19-.39.39-.6.59-2.05,2.05-9.19,5.68-11.23,6.66-.97,1.22-2.57,2.06-4.42,3.03-1.49.78-3.02,1.58-4.42,2.68-1.56,3.61-.62,9.56-.06,12.32,1.52.8,2.01,2.96,2.52,5.24.39,1.75.8,3.57,1.68,4.78.03.04.05.09.07.13,1.11,3.06,3.26,5.05,6.74,6.24.03.01.06.02.09.04.59.33,2.39,1.34,2.05,2.51-.33,1.14-2.32,1.18-3.16,1.15-3.3.11-5.28-1.83-8.03-4.51l-.63-.61s-.05-.05-.07-.08c-.85-1.25-1.48-3.11-2.09-4.91-.37-1.1-.72-2.14-1.1-2.97-.41-.88-2.96-.8-7.03,1.07-1.2.74-1.14.96-.13,3.01.37.75.82,1.68,1.3,2.88.02.05.03.11.04.17.28,4.49,2.29,5.49,2.31,5.5.04.02.09.05.13.08,4.35,3.7,4.83,5.05,5.57,7.1.2.56.41,1.14.73,1.85,1.37,1.96,2.59,4.44.06,6.38-.85.61-1.49.76-2,.88-.63.15-.98.23-1.54,1.18-.18,2.03.96,3.38,3.39,4.03.01,0,.02,0,.04,0,1.41,0,2.86-1.66,4.4-3.41.31-.36.63-.72.95-1.07.62-.56,1.47-.82,2.37-.74,1.26.11,2.48.85,3.43,2.09.02.02.04.05.05.08l.13.24c.54,1,1.1,2.04.58,2.87-.38.61-1.22.88-2.63.84-.91.05-1.53.36-1.86.94-.7,1.24-.02,3.62.95,5.43.04.07.06.16.07.24.02.47.11,1.08.45,1.26.47.26,1.5-.08,3.07-1.01.03-.02.06-.03.09-.04,1.39-.52,2.44-.56,3.23-.11.74.42,1.22,1.26,1.45,2.55,0,.05.01.09,0,.14-.02.28.08.58.17.88.15.45.31.95-.03,1.39-.32.42-.95.55-2.22.47-3,.16-4.4,1.47-4.4,4.1,0,.28-.22.52-.5.55-2.44.24-2.9.09-3.45-.61-.05-.06-.09-.12-.15-.18-1.15.1-1.46.02-1.97-.22-.2-.09-.42-.19-.84-.31-.11,0-.21,0-.31,0-.3,0-.58-.02-.66.06-.37.38-.27,3.12-.23,4.44-.11,2.33-.53,2.79-1.1,3.2-.22.16-.44.3-.52,1.61-.04.79-.14,2.89.24,3.25.14.13.58.09,1.11.03.3-.24.65-.52,1.05-.82,1.45-1.11,3.43-2.62,5.01-4.65.07-.1.18-.16.29-.19,2.96-.78,3.35-.71,4.13-.36.18.08.36.16.64.24,2.34.02,2.59,1.15,2.61,1.5.06.95-.93,1.78-2.38,2.01-.75.54-1.63.88-2.48,1.21-1.47.58-2.74,1.08-2.96,2.4-.01.07-.03.13-.07.19-1.21,2.08-.86,4.2-.07,4.94,2.38.06,2.49-.09,2.66-.31.08-.1.17-.22.29-.35.1-.1.24-.16.39-.16,2.68,0,2.77-.1,2.92-.25.12-.12.3-.3.66-.5.07-.04.15-.06.23-.07h.13c2.39-.16,3.59-.24,4.22.46.31.35.4.84.28,1.51-.63,2.64-2.49,2.67-7,2.47-.96.1-1.13.42-1.19.53-.3.53-.01,1.68.85,3.4Zm23.3.93h0,0Zm-8.79-46.95c-.06,0-.12,0-.18,0-2.79,0-3.87-.65-5.25-1.47-.35-.21-.73-.43-1.17-.67-.14-.07-.24-.2-.27-.35,0-.02-.6-2.36-1.35-3.59-.02-.04-.04-.08-.05-.12-.55-1.68-1.12-2.4-3.89-3.94-.05-.03-.1-.07-.14-.11-1.64-1.81-2.45-2.9-1.19-6.03.1-.64.9-4.94,4.35-5.16,1.54-.03,2.21-.56,2.8-1.03.38-.3.77-.62,1.31-.72.52-.27.91-.54,1.28-.81.93-.66,1.72-1.23,3.85-1.23.04,0,.09,0,.13.01.64.15,1.36.25,2.07.34,1.41.19,2.87.38,3.96,1.04.04.03.08.06.12.09.44.46.95.73,1.5,1.02.64.34,1.3.69,1.78,1.33,1.58,1.07,1.83,2.78,1.73,5.18,0,.57-.04,1.1-.08,1.56-.06.92-.12,1.72.13,1.96.11.11.38.22,1.12.16.04,0,.08,0,.12,0l.33.04c1.03.13,1.78.23,2.22.82.34.45.41,1.1.25,2.16-.06,2.46-.55,4.11-1.63,5.5-.02.03-.05.05-.07.08-1.91,1.65-3.28,2.34-7.12,2.86-1.87.16-3.11.45-4.1.68-.92.22-1.67.39-2.53.39Zm-5.87-3c.37.2.69.4,1,.58,1.33.79,2.2,1.31,4.7,1.31.82.02,1.5-.14,2.45-.36,1.03-.24,2.31-.54,4.23-.7,3.56-.49,4.71-1.04,6.47-2.56.92-1.21,1.32-2.61,1.37-4.84,0-.02,0-.05,0-.07.11-.72.1-1.18-.04-1.37-.16-.22-.74-.29-1.48-.39l-.28-.04c-.93.07-1.52-.08-1.93-.48-.6-.6-.54-1.53-.46-2.82.03-.45.06-.96.07-1.52.11-2.51-.23-3.58-1.32-4.28-.06-.04-.12-.09-.16-.15-.33-.48-.85-.75-1.45-1.07-.56-.29-1.18-.63-1.73-1.18-.89-.51-2.21-.69-3.48-.85-.71-.09-1.44-.19-2.11-.35-1.73,0-2.32.44-3.15,1.03-.4.29-.86.62-1.5.94-.05.03-.11.05-.18.05-.27.04-.5.21-.87.5-.66.52-1.55,1.24-3.44,1.27-2.72.17-3.3,4.24-3.31,4.28,0,.05-.02.09-.04.13-1.07,2.64-.51,3.32.9,4.87,2.77,1.54,3.64,2.44,4.31,4.46.68,1.14,1.21,2.96,1.39,3.6Z"/><path class="uuid-547f55e8-1644-4f56-8dd6-9a94ce59e4a9" d="m93.85,114.2c-.06,0-.12,0-.18,0h0c-2.79,0-3.87-.65-5.25-1.47-.35-.21-.73-.43-1.17-.67-.14-.07-.24-.2-.27-.35,0-.02-.6-2.36-1.35-3.59-.02-.04-.04-.08-.05-.12-.55-1.68-1.12-2.4-3.89-3.94-.05-.03-.1-.07-.14-.11-1.64-1.81-2.45-2.9-1.19-6.03.1-.64.9-4.94,4.35-5.16,1.54-.03,2.21-.56,2.8-1.03.38-.3.77-.62,1.31-.72.52-.27.91-.54,1.28-.81.93-.66,1.72-1.23,3.85-1.23.04,0,.09,0,.13.01.64.15,1.36.25,2.07.34,1.41.19,2.87.38,3.96,1.04.04.03.08.06.12.09.44.46.95.73,1.5,1.02.64.34,1.3.69,1.78,1.33,1.58,1.07,1.83,2.78,1.73,5.18,0,.57-.04,1.1-.08,1.56-.06.92-.12,1.72.13,1.96.11.1.38.22,1.12.16.04,0,.08,0,.12,0l.33.04c1.03.13,1.78.23,2.22.82.34.45.41,1.1.25,2.16-.06,2.46-.55,4.11-1.63,5.5-.02.03-.05.05-.07.08-1.91,1.65-3.28,2.34-7.12,2.86,0,0-.02,0-.03,0-1.85.15-3.08.44-4.07.68-.92.22-1.67.39-2.53.39Zm-5.87-3c.37.2.69.4,1,.58,1.33.79,2.2,1.31,4.7,1.31.82.02,1.5-.14,2.45-.36,1.03-.24,2.3-.54,4.22-.7,3.58-.49,4.73-1.05,6.49-2.56.92-1.21,1.32-2.61,1.37-4.84,0-.02,0-.05,0-.07.11-.72.1-1.18-.04-1.37-.16-.22-.74-.29-1.48-.39l-.28-.04c-.93.07-1.52-.08-1.93-.48-.6-.6-.54-1.53-.46-2.82.03-.45.06-.96.07-1.52.11-2.51-.23-3.58-1.32-4.28-.06-.04-.12-.09-.16-.15-.33-.48-.85-.75-1.45-1.07-.56-.29-1.18-.63-1.73-1.18-.89-.51-2.21-.69-3.48-.85-.71-.09-1.44-.19-2.11-.35-1.73,0-2.32.44-3.15,1.03-.4.29-.86.62-1.5.94-.05.03-.11.05-.18.05-.27.04-.5.21-.87.5-.66.52-1.55,1.24-3.44,1.27-2.72.17-3.3,4.24-3.31,4.28,0,.05-.02.09-.04.13-1.07,2.64-.51,3.32.9,4.87,2.77,1.54,3.64,2.44,4.31,4.46.68,1.14,1.21,2.96,1.39,3.6Zm12.43,1.38h0,0Z"/><path class="uuid-547f55e8-1644-4f56-8dd6-9a94ce59e4a9" d="m306.09,111.14c-.69,0-1.49-.16-2.58-.58-.66-.13-4.58-1.02-4.3-3.38.16-.86-.22-1.29-.62-1.74-.28-.32-.57-.64-.63-1.08-.21-.38-.45-.68-.67-.98-.6-.77-1.22-1.56-.93-3.27.01-.06.03-.12.06-.18.25-.44.45-.96.65-1.5.43-1.12.87-2.28,1.85-3.03.04-.03.09-.06.14-.08.59-.23.99-.58,1.41-.95.51-.45,1.03-.91,1.86-1.12,1.49-1,3.35-.69,5.85.14.55.17,1.05.35,1.5.5.93.33,1.74.61,2.03.45.14-.08.26-.33.35-.72,0-.04.02-.09.05-.13l.13-.26c.38-.76.67-1.36,1.31-1.57.52-.18,1.14-.05,2.11.44,2.14.77,3.36,1.59,4.19,2.8.02.03.04.07.06.1.74,1.78.88,2.88.18,5.56,0,.01,0,.02,0,.03-.37,1.15-.49,1.93-.58,2.55-.09.61-.16,1.13-.44,1.7-.7,1.59-1.43,2.12-2.35,2.79-.22.16-.46.34-.73.55-.09.07-.2.11-.32.12-.02,0-1.85.07-2.93.35-.03,0-.06.01-.09.02-1.42.12-2.09.37-3.83,1.72-.04.03-.08.06-.13.07-.95.39-1.68.69-2.61.69Zm-8.66-10.76c-.17,1.17.19,1.63.73,2.32.27.34.57.73.83,1.24.04.08.06.16.06.25,0,.1.2.33.36.51.45.51,1.14,1.29.88,2.64-.12,1.08,2.28,1.92,3.47,2.14.03,0,.06.02.1.03,2.14.83,2.86.56,4.35-.06,1.75-1.36,2.62-1.74,4.3-1.89,1-.25,2.44-.34,2.94-.37.22-.17.43-.32.62-.46.88-.64,1.41-1.02,1.99-2.35.21-.44.27-.84.35-1.4.1-.66.22-1.49.62-2.72.62-2.37.52-3.25-.12-4.78-.7-.98-1.77-1.67-3.66-2.35-.02,0-.04-.02-.06-.03-.82-.41-1.16-.44-1.3-.4-.21.07-.41.49-.67,1.02l-.1.21c-.11.46-.32,1.07-.87,1.38-.72.4-1.6.09-2.93-.37-.43-.15-.92-.32-1.47-.49-2.67-.88-3.96-.94-4.96-.23-.06.04-.13.08-.21.09-.61.13-.99.47-1.47.89-.44.39-.93.82-1.66,1.12-.69.57-1.05,1.51-1.44,2.51-.2.53-.41,1.07-.67,1.56Zm22.13.03h0,0Z"/><path class="uuid-547f55e8-1644-4f56-8dd6-9a94ce59e4a9" d="m343.42,104.39c-.5,0-.93-.1-1.3-.31-.77-.43-1.21-1.27-1.28-2.51,0-.08,0-.16.04-.24.57-1.42,2.52-3.83,5.82-2.75.06.02.12.05.17.09,1.31,1.03,1.94,2.06,1.8,2.96-.07.47-.38,1.11-1.48,1.55-1.53.81-2.78,1.21-3.76,1.21Zm-1.48-2.76c.07.76.31,1.26.71,1.48.51.28,1.62.35,4.04-.93.02-.01.04-.02.06-.03.34-.13.77-.36.82-.69.05-.35-.27-1.02-1.31-1.87-2.77-.85-4.05,1.48-4.31,2.03Z"/><path class="uuid-547f55e8-1644-4f56-8dd6-9a94ce59e4a9" d="m336.76,108.39c-.1,0-.19,0-.29-.02-1.2-.19-2.17-1.57-2.96-4.23-.02-.06-.03-.12-.02-.18.02-.57.3-5.61,3.04-6.07.07-.01.14,0,.22,0,2.5.58,3.14,1.79,3.23,2.71.05.33.1.67.16.99.32,1.98.56,3.42-.7,4.86-.91,1.31-1.79,1.95-2.67,1.95Zm-2.17-4.48c.85,2.78,1.65,3.31,2.05,3.37.51.08,1.18-.45,1.9-1.49.01-.02.03-.04.04-.05.94-1.05.77-2.09.46-3.97-.05-.32-.11-.66-.16-1.03-.11-1-1.27-1.5-2.27-1.75-1.46.39-1.95,3.65-2.02,4.92Z"/></g></svg>